<svg xmlns="http://www.w3.org/2000/svg" width="4500" height="5400" viewBox="0 0 4500 5400">
  <!-- Diamond Head Hoodie — Back graphic -->
  <!-- Geometric Diamond Head silhouette + EST. 2026 HONOLULU -->
  <!-- For dark garment (asphalt) — white line art -->

  <!-- Diamond Head geometric silhouette — stylized ridgeline -->
  <polyline
    points="600,3200 900,3100 1200,2900 1500,2500 1700,2200 1900,2000 2050,1900 2200,1850 2400,1900 2550,2000 2700,2200 2800,2350 2900,2300 3050,2150 3200,2050 3400,2000 3500,2050 3600,2200 3700,2500 3800,2800 3900,3200"
    fill="none"
    stroke="#FFFFFF"
    stroke-width="8"
    stroke-linecap="round"
    stroke-linejoin="round"
  />

  <!-- Crater detail lines -->
  <polyline
    points="2050,1900 2100,1950 2200,2000 2350,2020 2500,2000 2550,1960"
    fill="none"
    stroke="#FFFFFF"
    stroke-width="4"
    stroke-linecap="round"
  />

  <!-- Horizon line -->
  <line x1="500" y1="3200" x2="4000" y2="3200" stroke="#FFFFFF" stroke-width="3" opacity="0.4"/>

  <!-- Thin rule -->
  <line x1="1600" y1="3400" x2="2900" y2="3400" stroke="#FFFFFF" stroke-width="3"/>

  <!-- EST. 2026 HONOLULU -->
  <text x="2250" y="3580" font-family="'DM Sans', 'Helvetica Neue', Arial, sans-serif" font-weight="700" font-size="160" fill="#FFFFFF" text-anchor="middle" letter-spacing="24">EST. 2026 HONOLULU</text>
</svg>
