<svg xmlns="http://www.w3.org/2000/svg" height="1024" preserveAspectRatio="none" style="display: block;" version="1.1" viewBox="0 0 2048 2048" width="1024">
<path d="M 0 0 L 2048 0 L 2048 2048 L 0 2048 L 0 0 z" fill="rgb(254,254,254)" transform="translate(0,0)"></path>
<path d="M 1021.02 69.9489 C 1026.24 69.8941 1031.71 71.5367 1032.81 77.519 C 1042.71 131.487 1050.11 187.292 1069.35 239.047 C 1085.57 282.707 1104.78 327.931 1125.85 369.533 C 1174.84 320.348 1223.56 270.732 1259.54 210.809 C 1274.07 186.627 1286.05 161.253 1299.53 136.523 C 1302.76 130.599 1307.88 127.846 1314.03 131.601 C 1317.75 137.782 1317.15 144.885 1315.81 151.63 C 1302.34 219.174 1303.88 287.208 1311.57 355.37 C 1314.51 381.359 1318.31 408.017 1320.15 434.604 C 1370.98 408.162 1431.41 375.277 1476.98 341.356 C 1496.99 326.241 1516.05 309.897 1534.04 292.42 C 1542.64 284.219 1562.98 261.615 1573.07 260.098 C 1577.27 261.377 1575.5 260.292 1578.53 263.534 C 1580.56 269.148 1577.04 276.425 1574.25 281.21 C 1537.28 344.401 1517.4 411.437 1506.65 483.605 C 1503.51 504.648 1500.69 528.592 1496.3 549.669 C 1509.75 548.361 1523.99 545.438 1537.49 543.366 C 1599.45 533.855 1661.54 523.511 1718.64 496.321 C 1730.96 490.457 1743.21 484.344 1755.49 478.545 C 1764.61 474.234 1774.48 467.63 1784.68 470.955 C 1785.91 472.129 1787.18 472.815 1787.21 474.225 C 1784.92 487.138 1759.17 509.414 1750.21 518.2 C 1688.8 578.408 1656.25 654.446 1612.71 726.365 C 1634.28 728.966 1656.28 732.787 1677.45 735.235 C 1753.22 743.998 1829.48 746.924 1904.3 729.865 C 1910.66 728.415 1924.6 726.946 1925.94 735.664 C 1922.47 746.197 1895.76 757.136 1885.78 761.809 C 1805.4 799.434 1745.47 864.469 1678.91 920.883 C 1733.62 950.451 1796.48 978.408 1856.61 994.605 C 1889.26 1003.4 1924.71 1008.17 1958.22 1012.2 C 1967.89 1013.37 1980.31 1015.66 1976.53 1028.6 C 1969.18 1035.91 1932.7 1038.75 1921.15 1040.2 C 1834.14 1051.09 1757.76 1089.22 1679.57 1126.17 C 1690.91 1138.66 1706.58 1152.71 1718.49 1164.75 C 1774.86 1221.74 1835.64 1266.35 1908.63 1299.54 C 1913.88 1301.93 1919.02 1304.85 1921.01 1310.53 C 1920.85 1314.49 1917.56 1320.19 1913.33 1320.33 C 1899.96 1320.02 1884.37 1317.39 1871.01 1314.77 C 1783.88 1297.67 1706.74 1309.71 1620.08 1322.43 C 1637.47 1365.42 1668.55 1430.42 1695.34 1466.91 C 1711.12 1488.24 1728.46 1508.38 1747.22 1527.14 C 1756.65 1536.65 1787.37 1562.71 1787.51 1575.63 C 1782.67 1585.26 1767.84 1577.01 1761.17 1573.36 C 1715.72 1548.46 1666.48 1526.3 1615.17 1516.89 C 1575.46 1509.6 1536.29 1505.34 1496.73 1495 C 1511.96 1588.54 1515.05 1668.71 1566.02 1751.78 C 1570.95 1759.81 1579.54 1775.08 1578.56 1783.98 C 1578.34 1785.97 1575.43 1787.9 1573.62 1788.66 C 1570.92 1788.73 1567.84 1788.42 1565.66 1786.59 C 1531.5 1757.78 1499.27 1720.17 1462.32 1695 C 1419.72 1665.98 1369.05 1641.65 1323.53 1617.38 C 1313.62 1699.59 1295.85 1776.04 1310.08 1859.4 C 1313.13 1877.26 1315.84 1896.66 1317.72 1914.65 C 1318.06 1917.82 1312.29 1921.18 1309.09 1921.68 C 1301.32 1919.37 1297.73 1910.69 1294.33 1903.84 C 1288.51 1892.13 1281.9 1880.57 1276.16 1868.87 C 1239.79 1794.72 1182.76 1735.77 1127.9 1675.28 C 1081.45 1768.54 1043.25 1861.9 1034.39 1966.7 C 1033.71 1974.81 1030.69 1978.93 1023.09 1980.97 C 1016.34 1977.3 1015.29 1974.29 1014.06 1966.71 C 1011.78 1952.65 1010.31 1938.32 1008.31 1924.22 C 995.77 1835.52 958.989 1756.26 921.804 1675.72 C 909.684 1687.08 898.024 1701.95 886.554 1713.42 C 828.927 1771.01 785.505 1836.3 750.237 1909.54 C 735.653 1931.86 726.327 1919.58 731.108 1897.57 C 744.627 1835.34 746.943 1771 738.137 1707.92 C 733.936 1677.84 730.718 1646.32 724.874 1616.52 C 698.905 1630.41 672.141 1642.83 646.301 1656.96 C 599.278 1682.67 558.049 1713.05 519.508 1750.21 C 511.694 1757.74 484.197 1791.06 475.317 1790.49 C 472.584 1790.31 471.066 1789.21 469.253 1787.32 C 468.28 1783.27 468.748 1778.91 470.464 1775.11 C 487.87 1738.18 504.958 1703.87 517.793 1664.98 C 535.849 1610.27 539.504 1553.92 549.547 1497.36 C 531.138 1502.08 502.858 1505.57 483.426 1508.5 C 440.159 1515.01 405.823 1521.42 364.673 1536.38 C 347.359 1542.69 330.442 1550.04 314.015 1558.4 C 303.437 1563.89 274.523 1581.55 264.527 1580.09 C 253.725 1572.87 265.041 1562.9 271.048 1556.86 C 303.241 1523.04 341.391 1486.12 366.111 1446.15 C 390.23 1407.14 410.55 1361.73 432.844 1321.24 C 403.438 1318.94 370.661 1313.72 340.92 1310.55 C 312.465 1307.37 283.821 1306.2 255.201 1307.06 C 232.546 1307.73 209.949 1309.71 187.523 1312.99 C 174.521 1314.82 135.519 1323.57 126.935 1316.44 C 123.224 1305.67 132.796 1302.67 140.84 1298.73 C 189.364 1274.97 239.03 1247.81 279.628 1211.67 C 311.952 1182.89 342.007 1153.07 374.645 1124.42 C 345.699 1113.48 316.644 1099.34 288.101 1087.17 C 261.939 1075.96 235.079 1066.45 207.69 1058.7 C 184.469 1051.97 160.872 1046.62 137.022 1042.66 C 123.689 1040.48 110.307 1038.47 96.9907 1036.33 C 92.9291 1035.43 82.5488 1034.5 79.2391 1032.72 C 42.8704 1013.11 119.095 1008.1 126.376 1007 C 161.622 1001.67 196.307 993.135 230.003 981.504 C 276.003 965.152 326.546 940.171 373.578 921.292 C 337.34 890.564 300.941 854.222 264.536 825.412 C 238.202 804.897 210.071 786.802 180.483 771.348 C 170.148 765.934 121.904 746.343 130.267 733.216 C 138.435 728.576 151.482 731.175 160.493 732.488 C 195.422 737.577 229.877 740.933 265.219 740.877 C 321.094 740.79 376.803 730.124 432.335 727.783 C 417.261 698.069 401.825 668.655 385.744 639.325 C 354.716 582.736 314.185 532.558 266.145 489.487 C 261.472 485.298 253.664 475.199 262.226 470.502 C 270.146 466.156 283.425 476.802 290.769 479.683 C 372.179 525.632 455.247 533.35 547.424 547.872 C 546.262 532.246 541.758 513.498 539.663 498.04 C 529.824 425.43 514.338 355.811 478.082 291.356 C 474.317 284.662 463.149 264.843 474.081 260.592 C 484.177 261.547 502.476 281.642 510.427 289.939 C 571.596 353.763 648.471 394.419 726.396 433.687 C 728.541 410.386 732.618 384.348 735.384 360.756 C 742.262 302.083 745.734 248.187 737.593 189.427 C 736.273 179.902 729.331 141.282 729.64 134.68 C 729.748 132.282 730.639 129.986 732.177 128.143 C 743.97 113.979 757.323 152.841 760.559 160.648 C 795.507 244.958 860.998 304.698 921.564 370.122 C 947.683 311.581 979.031 251.749 994.986 189.374 C 1000.5 166.985 1005.12 144.383 1008.82 121.624 C 1011.12 106.835 1012.66 91.091 1016.07 76.5889 C 1016.78 73.5808 1018.7 71.8842 1021.02 69.9489 z" fill="rgb(0,0,1)" transform="translate(0,0)"></path>
<path d="M 1023.5 127.233 C 1025.17 130.193 1028.9 150.109 1029.79 154.592 C 1034.76 179.696 1040.73 202.978 1049.32 227.065 C 1058.09 251.97 1068 276.459 1079.01 300.457 C 1091.62 327.894 1105.38 354.404 1117.46 382.056 C 1111.27 423.703 1102.05 486.912 1102.68 527.42 C 1114.66 484.814 1121.75 427.091 1129.36 383.024 C 1142.05 368.756 1156.74 355.766 1170.25 342.191 C 1190.07 322.278 1209.37 301.398 1228.05 280.413 C 1254.59 250.604 1272.19 218.927 1293.21 185.644 C 1293.03 194.714 1291.85 204.934 1291.38 214.187 C 1290.22 235.684 1290.15 257.226 1291.17 278.73 C 1294.15 332.545 1304.6 388.529 1308.43 442.065 C 1303.54 451.201 1298.76 461.667 1294.53 471.152 C 1278.28 507.604 1258.66 544.985 1247.55 583.325 C 1254.99 572.971 1263.13 557.979 1269.24 546.452 C 1285.29 516.217 1303.12 481.098 1316.45 449.733 C 1341.28 437.043 1365.94 424.021 1390.43 410.672 C 1449.38 378.931 1493.68 354.021 1541.43 307.262 C 1533.2 327.988 1524.75 347.221 1518.28 368.726 C 1505.96 409.629 1498.93 454.541 1492.36 496.774 C 1489.87 512.738 1485.77 538.501 1484.8 553.621 C 1462.54 579.071 1436 603.083 1413.29 628.389 C 1404.14 638.582 1390.61 652.956 1383.49 664.379 C 1404.24 649.61 1418.01 635.469 1436.08 617.984 C 1455.19 599.318 1474.45 580.798 1493.84 562.425 C 1581.22 546.206 1654.09 544.295 1738.74 505.905 C 1698.62 548.105 1660.22 615.451 1632.17 666.719 C 1621.14 686.882 1611.03 707.778 1598.72 727.215 C 1558.15 748.811 1509.34 770.247 1472.87 796.486 C 1500.82 790.743 1578.68 750.835 1604.64 736.654 C 1686.66 749.663 1784.25 763.456 1865.9 753.413 C 1802.55 785.582 1761.67 831.558 1708.91 878.04 C 1694.4 890.823 1679.98 905.432 1664.55 916.96 C 1653.06 918.118 1633.78 922.151 1622.1 924.23 C 1594.05 929.22 1560.42 934.612 1533.78 944.759 C 1583.7 941.013 1616.7 937.135 1665.98 928.606 C 1678.01 933.522 1704.96 947.997 1718.2 954.3 C 1786.32 986.73 1840.38 1010.55 1915.16 1023.57 C 1821.52 1042.43 1751.8 1077.4 1666.93 1119.29 C 1623.06 1110.07 1571.19 1104.26 1526.44 1101.06 C 1548.29 1109.84 1593.42 1117.44 1617.22 1122.7 C 1626.32 1124.71 1660.59 1128.14 1666.35 1132.34 C 1681.91 1144.32 1696.25 1160.09 1710.25 1173.91 C 1747.72 1210.88 1785.23 1247.16 1829.88 1275.5 C 1841.72 1283.02 1852.26 1291.92 1865.44 1297.59 C 1854.36 1295.55 1843.03 1295.01 1831.86 1293.72 C 1758.09 1285.21 1684.44 1300.26 1611.45 1312.02 C 1567.43 1285.88 1521.32 1263.45 1473.59 1244.96 C 1494.72 1265.16 1577.15 1307.73 1605.59 1322.02 C 1614.02 1338.72 1622.19 1359.45 1630.15 1376.88 C 1664.54 1452.09 1688.67 1489.96 1746.37 1548.3 C 1736.29 1543.72 1726.36 1537.88 1715.99 1533.15 C 1692.28 1522.53 1667.56 1514.34 1642.2 1508.72 C 1595.16 1498.26 1538.18 1495.22 1491.65 1480.31 C 1489.08 1479.48 1466.91 1456.11 1462.76 1452.44 C 1436.19 1428.94 1408.06 1396.67 1378.39 1377.46 L 1376.95 1376.54 C 1396.99 1403.1 1414.14 1419.31 1437.34 1442.71 L 1483.34 1489.99 C 1495.56 1554.48 1496.98 1622.62 1518.45 1685.32 C 1525.47 1705.83 1534.08 1724.61 1543.04 1744.24 C 1481.12 1676.57 1401.89 1644.64 1321.91 1603.2 C 1302.24 1565.36 1267.88 1496.88 1243.48 1464.81 C 1262.27 1519.05 1288.06 1559.49 1311.61 1609 C 1310.03 1632.4 1302.58 1675.22 1298.73 1699.26 C 1288.6 1762.59 1287.66 1803.85 1294.48 1867.48 C 1265.32 1812.42 1234.81 1773.23 1192.93 1727.31 C 1175.16 1707.83 1147.36 1679.67 1131.38 1659.81 C 1124.41 1613.7 1113.17 1573.17 1102.67 1528.5 C 1101.78 1544.74 1104.78 1561.46 1106.35 1577.58 C 1109.16 1606.56 1115.51 1634.75 1119.8 1663.45 C 1078.79 1744.29 1038.34 1830.41 1024.2 1920.36 C 1023.27 1914.54 1022.16 1908.59 1021.13 1902.78 C 1008.86 1839.42 992.065 1799.86 966.369 1742 C 954.714 1715.04 942.317 1688.41 929.194 1662.14 C 938.67 1619.24 944.641 1575.64 947.05 1531.77 C 933.654 1572.13 927.022 1619.34 917.528 1661.03 C 883.884 1697.89 845.729 1736.65 814.219 1774.59 C 797.519 1794.7 766.957 1842.48 754.46 1865.94 C 758.974 1826.26 760.151 1787.84 756.017 1748.1 C 751.084 1700.68 743.736 1653.29 736.962 1606.11 C 744.388 1595.21 753.769 1576.29 759.915 1564.01 C 773.762 1536.35 792.42 1501.6 800.487 1471.85 C 783.151 1497.11 766.261 1528.6 751.048 1555.48 C 742.897 1569.88 736.13 1584.96 727.503 1599.67 C 705.222 1611.03 683.584 1623.21 661.098 1634.4 C 605.402 1662.12 550.236 1697.74 505.298 1741.26 C 521.412 1703.18 534.889 1665.88 542.462 1625.08 C 550.625 1581.09 556.671 1536.8 563.615 1492.6 C 589.605 1468.68 643.75 1417.28 661.108 1387.34 C 637.59 1407.35 615.524 1428.34 593.053 1449.44 C 568.952 1471.17 562.975 1484.82 528.851 1488.91 C 449.283 1498.45 380.527 1511.4 306.471 1542.95 C 333.776 1515.87 368.846 1472.3 386.679 1438.73 C 408.17 1398.28 427.6 1357.47 450.491 1317.58 C 499.564 1294.51 543.804 1275.2 588.575 1243.12 C 544.185 1258.62 486.83 1290.59 441.913 1307.28 C 433.928 1310.25 378.917 1301.2 366.295 1299.96 C 308.04 1294.27 240.748 1286.74 182.659 1297.58 C 210.794 1279.84 243.444 1260.26 268.917 1239.31 C 290.713 1221.38 313.609 1198.47 334.189 1178.69 C 352.501 1160.76 371.52 1143.57 391.202 1127.16 C 428.631 1123.38 469.626 1112.36 506.907 1106.17 C 514.952 1104.83 524.812 1102.88 532.419 1100.26 C 480.265 1102.2 439.69 1108.03 388.101 1116.06 C 343.461 1098.86 299.841 1077.25 254.762 1059.82 C 209.75 1042.41 174.987 1033.8 128.335 1024 C 160.64 1015.32 183.417 1012.88 217.582 1000.44 C 275.705 979.27 328.718 951.673 386.12 929.596 C 433.447 937.719 480.241 945.216 528.267 948.12 C 508.341 939.422 455.215 930.754 432.349 926.111 C 423.771 923.673 394.755 921.84 388.865 917.351 C 351.953 889.216 315.831 851.253 281.331 820.878 C 251.952 795.012 216.715 771.652 183.002 753.631 C 269.024 763.447 357.435 745.749 442.554 739.926 C 482.185 759.669 546.736 791.255 587.3 803.485 C 537.866 768.425 497.741 755.444 447.529 728.034 C 400.035 639.924 377.464 579.647 306.376 505.506 C 378.36 540.322 473.414 550.844 552.599 561.326 C 593.615 602.39 624.111 631.89 669.171 668.654 C 649.874 638.822 614.73 606.959 589.645 581.653 C 580.243 572.168 569.756 563.043 561.189 552.76 C 559.346 530.628 553.682 499.963 550.299 477.485 C 541.525 419.195 529.701 358.592 503.736 305.155 C 510.985 313.684 523.226 324.181 531.966 331.55 C 588.854 379.513 661.439 415.613 728.133 448.096 C 730.266 453.521 741.886 475.326 744.963 481.321 C 761.831 514.188 780.753 553.732 802.989 583.249 C 788.927 539.27 759.519 483.397 737.904 441.587 C 738.836 435.524 739.628 428.472 740.251 422.353 C 748.064 345.627 767.089 260.997 753.053 184.421 C 797.172 265.333 854.729 318.456 918.471 384.014 C 920.011 397.372 924.586 418.57 927.144 432.237 C 930.986 453.429 935.297 474.534 940.075 495.535 C 942.346 505.692 944.939 519.704 948.742 529.131 C 947.674 486.977 937.567 425.65 929.358 383.024 C 935.936 365.425 947.564 344.301 955.776 326.826 C 987.125 260.118 1014.07 201.48 1023.5 127.233 z" fill="rgb(254,254,254)" transform="translate(0,0)"></path>
<path d="M 1023.54 154.831 C 1032.29 164.72 1070.82 364.949 1075.3 390.577 C 1077.71 404.674 1079.73 418.834 1081.36 433.041 C 1087.06 484.95 1086.08 533.32 1083.11 585.293 C 1082.65 593.305 1080.6 642.212 1084.41 646.578 C 1091.03 641.75 1113.48 543.999 1117.38 528.779 C 1139.67 441.992 1185.06 366.924 1230.94 291.185 C 1250.39 259.083 1273.42 230.316 1289.56 197.888 C 1286.73 217.872 1286.69 238.144 1284.79 258.332 C 1281.18 294.73 1277.36 331.108 1273.35 367.466 C 1270.66 391.982 1267.87 416.357 1264.49 441.011 C 1255.86 503.964 1237.25 564.735 1215.17 624.139 C 1207.36 645.158 1200.85 664.619 1195.96 686.314 C 1211.57 668.503 1227.91 641.065 1240.93 620.603 C 1261.25 588.659 1280.64 559.276 1304.58 529.89 C 1330.93 497.53 1359.37 473.673 1389.7 445.538 C 1418.17 419.122 1447.03 392.8 1476.4 367.375 C 1494.48 351.731 1513.16 338.23 1531.06 321.835 C 1521.07 342.534 1514.58 366.066 1506.22 387.496 C 1493.84 419.21 1480.31 450.373 1466.9 481.67 C 1452.05 516.339 1439.97 550.299 1420.43 582.788 C 1395.14 624.844 1363.1 660.367 1332.32 698.236 C 1321.09 712.048 1300.11 735.666 1291.88 749.948 C 1292.84 752.927 1292.38 751.604 1295.53 754.113 C 1303.81 754.771 1395.18 675.673 1407.68 665.73 C 1479.22 608.829 1567.91 583.95 1649.25 544.37 C 1672.99 532.818 1701.25 526.767 1725.24 514.693 C 1678.18 575.611 1630.15 633.117 1576.07 687.874 C 1542.37 724.555 1508.55 753.407 1467.01 780.545 C 1452.13 790.267 1367.68 841.866 1364.5 850.902 L 1365.79 853.184 C 1372.42 856.837 1494.02 806.385 1514.91 801.31 C 1593.74 781.612 1675.41 776.607 1755.6 764.723 C 1785.21 760.334 1813.61 760.809 1843.45 759.826 C 1835.78 765.698 1826.91 770.714 1819.04 776.442 C 1803.79 787.518 1789.26 799.597 1773.12 809.412 C 1700.62 853.499 1625.52 894.587 1545.18 922.471 C 1498.22 938.772 1444.69 946.772 1400.32 967.732 C 1425.07 969.135 1456.28 967.429 1481.16 965.721 C 1597.9 957.708 1711.31 980.374 1824.54 1005.68 C 1848.08 1010.94 1871.64 1019.17 1895.44 1024.4 C 1867.94 1028.1 1844.43 1038.51 1818.13 1043.76 C 1754.96 1056.38 1689.58 1072.43 1625.68 1079.32 C 1588.84 1082.99 1551.8 1084.28 1514.8 1083.2 C 1486.1 1082.27 1428.04 1078.02 1402.12 1082.75 C 1452.57 1102.43 1501.89 1109.53 1552.83 1127.14 C 1622.87 1150.88 1685.57 1189.83 1748.51 1227.74 C 1782.26 1248.07 1813.76 1268.63 1846.03 1291.37 C 1826.52 1288.03 1805.73 1288.07 1786.03 1285.31 C 1710.45 1274.71 1634.04 1271.89 1559.29 1255.86 C 1536.65 1251.01 1511.39 1240.74 1491.09 1235.61 C 1466.41 1229.38 1384.64 1191.87 1366.96 1193.55 L 1366.02 1194.77 C 1370.67 1204.67 1469.46 1267.18 1485.81 1278.62 C 1499.47 1288.24 1512.68 1298.49 1525.39 1309.34 C 1537.61 1319.67 1551.13 1331.76 1561.79 1343.74 C 1602.6 1389.6 1641.96 1436.75 1682.71 1482.68 C 1696.66 1498.4 1708.58 1516.18 1723.32 1531.29 C 1687.36 1516.67 1653.18 1503.96 1617.81 1487.3 C 1572.69 1466.04 1525.39 1448.77 1480.96 1425.7 C 1416.9 1392.44 1365.55 1342.33 1308.79 1298.89 C 1303.82 1295.11 1296.34 1290.6 1291.07 1295.63 C 1291.15 1303.92 1361.48 1384.76 1372.62 1398.19 C 1436.02 1474.61 1463.83 1564.96 1501.91 1654.61 C 1512.06 1678.51 1518.28 1701.8 1529.82 1725.35 C 1508.59 1703.78 1483.08 1686.93 1460.12 1667.38 C 1430.3 1641.97 1402.89 1613.65 1373.46 1587.76 C 1354.07 1570.7 1336.57 1552.96 1318.75 1534.39 C 1269.66 1483.2 1239.21 1417.09 1190.97 1365.26 C 1196.85 1393.95 1208.1 1419.82 1219.07 1446.8 C 1230.73 1475.49 1241.1 1502.83 1249.96 1532.46 C 1265.2 1583.4 1269.65 1634.17 1274.91 1686.88 C 1280.68 1741.11 1285.13 1795.48 1288.27 1849.93 C 1274.59 1822.71 1257.19 1799.61 1241.4 1773.76 C 1225.38 1747.2 1209.85 1720.36 1194.82 1693.23 C 1168.17 1646.16 1141.3 1599.41 1125.2 1547.43 C 1118.01 1524.2 1112.07 1500.54 1105.26 1477.19 C 1097.62 1451.56 1089.14 1426.19 1079.84 1401.12 C 1080.71 1426.16 1080.67 1450.96 1081.7 1476.02 C 1083.23 1513.06 1087.4 1552.71 1085.36 1589.69 C 1082.95 1640.4 1068.29 1689.1 1058.42 1738.51 C 1047.82 1791.64 1036.4 1843.97 1024.44 1896.78 L 1022.31 1887.76 C 1010.6 1839.07 999.593 1791.99 989.075 1742.93 C 977.931 1690.95 965.483 1643.67 962.819 1589.9 C 960.753 1548.2 964.751 1510.19 966.634 1468.68 C 967.606 1447.24 966.921 1421.8 966.828 1400.12 C 961.227 1420.22 951.953 1440.19 947.012 1460.45 C 927.835 1539.09 906.723 1610.2 861.347 1678.44 C 841.714 1707.97 824.674 1745.33 805.424 1775.87 C 790.15 1800.1 774.744 1823.52 760.86 1849.03 C 762.178 1797.67 768.42 1742.61 773.107 1691.4 C 778.151 1641.22 779.745 1589.78 793.508 1540.98 C 806.476 1495.01 825.843 1451.04 842.371 1406.28 C 847.477 1392.45 851.629 1377.52 855.875 1363.35 C 811.858 1411.32 783.734 1474.95 741.06 1525.34 C 718.968 1552.92 692.067 1574.58 666.208 1598.26 C 617.827 1642.56 565.244 1682.74 516.139 1726.09 C 525.001 1703.22 532.611 1678.55 541.927 1656.18 C 555.809 1620.79 575.777 1582.04 588.589 1546.56 C 619.059 1462.17 671.693 1398.96 729.927 1332.31 C 735.653 1325.76 756.11 1301.36 755.323 1293.44 C 749.158 1291.38 695.68 1335.95 688.963 1342.08 C 615.472 1409.11 538.371 1448.31 445.595 1482.61 C 406.083 1497.22 365.435 1517.04 323.211 1531.3 C 347.653 1500.61 377.755 1466.65 403.623 1436.78 C 446.122 1387.72 487.471 1339.94 537.491 1298.29 C 577.685 1264.83 648.713 1226.96 682.972 1189.07 C 668.354 1191.76 645.054 1201.09 630.979 1206.65 C 598.261 1219.58 565.97 1234.83 532.172 1244.87 C 471.201 1262.97 408.678 1269.47 345.77 1276.38 C 321.324 1278.95 296.886 1283.21 272.439 1285.64 C 247.614 1288.1 222.266 1289.89 197.358 1291.34 C 224.981 1278.01 243.592 1261.75 269.089 1245.88 C 322.078 1212.89 378.069 1178.49 434.104 1151.08 C 453.537 1141.58 492.722 1125.49 512.974 1119.96 C 560.793 1106.93 599.396 1100.28 645.082 1080.15 C 616.871 1079.9 588.658 1080.31 560.467 1081.4 C 535.198 1082.4 509.262 1084.15 483.997 1083.75 C 459.401 1083.25 434.858 1081.27 410.5 1077.82 C 379.925 1073.66 350.093 1067.6 319.845 1061.69 C 287.381 1055.5 254.994 1048.92 222.69 1041.95 C 201.847 1037.37 166.219 1026.77 147.784 1024.48 L 146.381 1024.31 C 168.21 1019.64 189.084 1013.7 210.493 1009 C 294.078 990.654 380.986 969.052 466.468 963.451 C 526.654 959.507 586.275 970.429 647.602 965.685 C 608.214 948.24 567.138 942.101 526.119 930.206 C 434.188 903.548 351.079 850.014 268.254 803.444 C 244.866 790.294 225.473 771.447 201.011 759.956 C 218.964 761.148 236.889 760.829 255.108 762.109 C 299.253 765.539 343.29 770.236 387.164 776.195 C 423.385 781.018 459.051 785.925 494.79 793.824 C 519.368 799.199 543.603 806.036 567.367 814.297 C 580.804 818.923 676.802 858.703 682.93 852.797 C 681.852 845.439 612.924 800.82 603.385 794.772 C 501.807 730.371 422.257 637.762 346.271 545.956 C 338.147 536.14 331.638 526.266 322.803 516.941 C 344.129 526.49 371.137 534.691 393.473 543.466 C 460.961 569.979 531.35 597.276 593.948 634.099 C 625.266 652.521 655.109 678.646 682.975 701.71 C 706.052 720.81 731.232 744.408 758.55 756.625 C 749.787 736.964 723.455 706.235 709.544 689.209 C 686.661 661.201 664.909 635.443 644.26 605.474 C 609.95 555.677 586.524 500.151 563.476 444.527 C 555.702 425.764 546.069 405.809 539.117 386.947 C 531.429 366.089 524.5 344.797 516.835 323.792 C 534.792 339.621 554.398 353.755 572.487 369.135 C 592.52 386.168 612.288 404.737 632.085 422.155 C 670.955 456.353 707.903 489.228 741.702 528.736 C 760.957 551.245 775.877 572.854 792.249 597.048 C 805.62 616.807 837.676 668.599 854.548 683.329 L 855.892 682.898 C 857.866 675.328 837.368 629.565 833.265 619.416 C 824.709 597.654 816.676 575.689 809.173 553.541 C 784.061 479.605 779.614 418.47 771.687 341.686 C 767.157 297.797 760.941 250.321 760.884 206.146 C 772.426 223.444 787.131 243.119 797.495 260.9 C 836.172 327.255 882.084 394.857 910.9 466.015 C 935.014 525.559 947.59 589.844 967.422 650.896 C 969.677 584.521 959.534 516.335 964.997 450.212 C 968.607 406.508 979.426 360.423 987.672 317.196 C 993.63 285.964 999.595 254.381 1006.46 223.391 C 1011.52 200.522 1019.24 177.948 1023.54 154.831 z" fill="rgb(0,0,1)" transform="translate(0,0)"></path>
<path d="M 999 655.276 C 1202.88 641.32 1379.4 795.433 1393.08 999.329 C 1406.77 1203.23 1252.42 1379.54 1048.5 1392.95 C 844.973 1406.33 669.065 1252.34 655.408 1048.83 C 641.752 845.321 795.508 669.206 999 655.276 z" fill="rgb(254,254,254)" transform="translate(0,0)"></path>
<path d="M 1004.55 718.585 C 1173.26 707.812 1318.7 835.96 1329.26 1004.68 C 1339.81 1173.4 1211.48 1318.68 1042.75 1329.02 C 874.32 1339.34 729.361 1211.29 718.822 1042.88 C 708.284 874.461 836.15 729.338 1004.55 718.585 z" fill="rgb(0,0,1)" transform="translate(0,0)"></path>
<path d="M 1004.82 732.058 C 1165.8 721.459 1304.98 843.179 1315.93 1004.14 C 1326.87 1165.1 1205.45 1304.54 1044.51 1315.83 C 883.088 1327.16 743.128 1205.29 732.148 1043.84 C 721.169 882.388 843.341 742.69 1004.82 732.058 z" fill="rgb(254,254,254)" transform="translate(0,0)"></path>
<path d="M 998.878 740.007 C 1156.01 726.174 1294.52 842.554 1307.98 999.722 C 1321.43 1156.89 1204.72 1295.12 1047.52 1308.19 C 890.852 1321.22 753.197 1204.99 739.789 1048.36 C 726.381 891.728 842.278 753.793 998.878 740.007 z" fill="rgb(0,0,1)" transform="translate(0,0)"></path>
<path d="M 1007.55 810.39 C 1007.82 810.329 1008.1 810.268 1008.38 810.207 C 1053.47 805.885 1100.66 819.88 1136.17 847.298 C 1178.78 880.195 1202.69 935.961 1209.09 987.991 C 1216.92 1051.72 1204.17 1122.09 1163.79 1173.28 C 1131.81 1213.8 1092.86 1234.91 1042.07 1240.93 C 990.394 1243.01 953.29 1235.13 911.004 1202.17 C 867.928 1167.05 844.593 1110.98 839.447 1057.02 C 828.327 940.427 877.409 822.867 1007.55 810.39 z" fill="rgb(254,254,254)" transform="translate(0,0)"></path>
<path d="M 1018.82 842.396 C 1034.79 839.918 1058.15 848.068 1071.59 856.275 C 1090.66 867.914 1107.16 887.676 1117.01 907.401 C 1158.61 990.694 1149.5 1201.39 1027.94 1209.25 C 950.171 1211.63 917.121 1131.72 909.439 1066.36 C 899.753 983.957 915.863 853.623 1018.82 842.396 z" fill="rgb(0,0,1)" transform="translate(0,0)"></path>
<path d="M 976.972 1403.11 C 1012.44 1406.47 1035.67 1406.29 1071.06 1403.59 C 1059.51 1455.96 1045.68 1506.69 1034.81 1558.43 C 1031.85 1572.68 1028.79 1587.15 1024.4 1601.02 L 992.454 1471.96 C 988.848 1457.51 977.245 1414.57 976.972 1403.11 z" fill="rgb(254,254,254)" transform="translate(0,0)"></path>
<path d="M 1023.43 458.161 C 1027.55 467.536 1035.56 502.937 1038.8 515.018 C 1050.29 557.773 1065.11 602.246 1073.79 645.334 C 1057.82 644.214 1044.52 642.944 1028.46 642.996 C 1011.54 642.85 993.684 644.37 976.659 645.28 C 978.695 633.378 980.211 621.03 982.826 609.31 C 987.86 586.752 994.495 564.287 1000.73 542.011 C 1008.69 514.17 1016.26 486.217 1023.43 458.161 z" fill="rgb(254,254,254)" transform="translate(0,0)"></path>
<path d="M 865.167 1371.19 C 885.874 1382.06 933.502 1394.65 956.406 1400.02 C 949.061 1416.45 933.367 1439.76 923.6 1454.59 L 886.702 1511.33 C 873.946 1530.78 863.552 1548.89 849.749 1567.77 C 851.674 1554.54 852.654 1533.86 853.623 1520.1 C 855.866 1488.95 857.93 1457.78 859.813 1426.59 C 860.965 1409.39 862.151 1388.09 865.167 1371.19 z" fill="rgb(254,254,254)" transform="translate(0,0)"></path>
<path d="M 1404.25 977.169 C 1445.54 988.495 1487.66 997.735 1529.37 1007.4 C 1538.87 1009.6 1593.7 1017.97 1597.3 1023.69 C 1594.11 1028.13 1564.05 1033.36 1557.04 1034.86 C 1533.41 1040.76 1509.14 1045.16 1485.75 1052.02 C 1458.61 1059.98 1431.32 1066.16 1403.77 1072.5 C 1406.82 1036.27 1407.12 1013.08 1404.25 977.169 z" fill="rgb(254,254,254)" transform="translate(0,0)"></path>
<path d="M 697.207 567.625 C 706.757 572.383 740.873 602.373 750.608 610.197 C 782.411 635.756 813.467 662.003 844.254 688.771 C 831.107 695.667 821.409 701.908 809.331 710.152 C 793.958 721.406 780.19 732.136 766.274 745.11 C 750.914 715.937 734.757 671.317 722.871 640.195 C 714.065 617.134 704.258 591.111 697.207 567.625 z" fill="rgb(254,254,254)" transform="translate(0,0)"></path>
<path d="M 1196.53 485.726 C 1197.42 491.047 1194.75 533.7 1194.34 541.412 C 1191.9 587.236 1190.79 633.476 1186.21 679.105 C 1167.3 669.315 1141.29 661.186 1121.19 654.896 C 1112.93 652.616 1103.86 650.72 1095.46 648.797 C 1102.95 630.965 1120.8 603.192 1131.34 586.626 C 1152.77 552.935 1174.83 519.287 1196.53 485.726 z" fill="rgb(254,254,254)" transform="translate(0,0)"></path>
<path d="M 851.681 485.558 C 857.528 492.021 878.323 524.155 884.35 533.077 L 919.845 585.557 C 934.541 607.195 947.046 624.123 957.527 648.409 C 951.045 649.396 941.52 651.945 934.899 653.519 C 909.853 660.154 892.178 666.558 868.406 676.348 C 863.21 644.686 860.739 607.544 858.172 575.229 C 855.88 546.375 852.609 514.165 851.681 485.558 z" fill="rgb(254,254,254)" transform="translate(0,0)"></path>
<path d="M 1400.88 1092.01 C 1436.04 1108.11 1482.22 1144.12 1515.4 1165.22 C 1530.41 1174.75 1559.54 1190.3 1572.02 1200.52 C 1562.18 1200.02 1554.51 1198.98 1544.82 1197.64 C 1485.44 1189.16 1429.39 1188.75 1371.91 1181.95 C 1386.82 1149.44 1393.03 1126.58 1400.88 1092.01 z" fill="rgb(254,254,254)" transform="translate(0,0)"></path>
<path d="M 1477.04 694.072 L 1477.65 695.331 C 1444.85 742.358 1397.18 797.732 1359.07 840.288 C 1351.85 828.8 1344.43 817.434 1336.83 806.195 C 1325.5 789.682 1315.27 777.302 1301.69 762.777 C 1317.17 755.504 1332.85 750.158 1348.78 744.012 L 1432.88 711.664 C 1446.28 706.538 1464.47 700.133 1477.04 694.072 z" fill="rgb(254,254,254)" transform="translate(0,0)"></path>
<path d="M 566.772 692.831 C 571.854 694.186 578.795 697.152 583.786 699.259 C 637.605 721.982 692.2 742.4 746.168 764.819 C 733.487 779.014 724.436 790.143 713.3 805.566 C 705.007 816.947 697.33 828.763 690.3 840.965 C 685.461 835.251 680.038 829.83 674.892 824.375 C 635.973 783.113 602.478 736.765 566.772 692.831 z" fill="rgb(254,254,254)" transform="translate(0,0)"></path>
<path d="M 1179.78 1371.05 C 1181.65 1375.13 1184.3 1407.04 1184.57 1413.4 C 1186.59 1461.99 1194.04 1511.22 1196.97 1559.45 C 1186.31 1546.99 1168.56 1519.7 1158.71 1505.46 C 1135.25 1470.81 1108.34 1437.12 1088.45 1400.72 C 1122.07 1393.1 1148.45 1385.98 1179.78 1371.05 z" fill="rgb(254,254,254)" transform="translate(0,0)"></path>
<path d="M 1281.93 1305.01 C 1283.85 1307.91 1288.6 1319.89 1290.25 1323.88 C 1297.65 1341.64 1304.5 1359.63 1311.79 1377.47 C 1319.08 1395.46 1326.52 1413.4 1334.1 1431.27 C 1340.77 1446.61 1348.21 1462.38 1353.88 1478.06 C 1342.61 1472.1 1318.89 1452 1307.36 1443.06 C 1274.39 1417.99 1231.82 1388.03 1200.72 1362.2 C 1233.71 1343.55 1252.86 1330.08 1281.93 1305.01 z" fill="rgb(254,254,254)" transform="translate(0,0)"></path>
<path d="M 1361.04 1204.79 C 1387.21 1230.22 1408.73 1263.31 1431.6 1291.96 C 1442.34 1305.32 1453.18 1318.61 1464.11 1331.82 C 1471.41 1340.69 1479.89 1350.3 1485.84 1359.98 C 1473.05 1354.44 1458.24 1346.86 1445.5 1340.74 C 1400.06 1318.6 1352.61 1301.83 1305.5 1283.34 C 1315.48 1269.72 1327.07 1256.32 1336.84 1242.46 C 1345.35 1230.4 1353.26 1217.37 1361.04 1204.79 z" fill="rgb(254,254,254)" transform="translate(0,0)"></path>
<path d="M 486.53 852.007 C 499.292 851.353 530.009 854.085 543.776 854.904 C 588.201 857.124 632.552 860.625 676.776 865.401 C 666.991 888.736 660.775 907.026 653.827 931.217 L 648.322 954.015 C 608.872 931.931 574.974 909.97 537.614 884.352 C 521.418 873.247 502.637 863.799 486.53 852.007 z" fill="rgb(254,254,254)" transform="translate(0,0)"></path>
<path d="M 1552.05 852.424 C 1554.51 852.194 1554.38 852.062 1556.52 853.245 L 1556.66 854.802 C 1553.23 859.609 1451.17 925.593 1440.52 932.143 C 1427.69 939.954 1414.67 947.446 1401.48 954.612 L 1396.13 934.376 C 1389.71 910.7 1380.24 886.557 1371.13 863.849 C 1392.23 861.811 1423.2 861.641 1445.42 860.553 C 1481.03 858.769 1516.58 856.059 1552.05 852.424 z" fill="rgb(254,254,254)" transform="translate(0,0)"></path>
<path d="M 1350.83 572.146 L 1350.93 572.199 C 1352.25 578.692 1290.73 728.347 1283.93 744.31 C 1268.98 732.639 1257.64 721.951 1241.47 710.291 C 1229.53 702.243 1219.09 696.153 1206.62 688.902 C 1246.32 650.373 1306.05 607.831 1350.83 572.146 z" fill="rgb(254,254,254)" transform="translate(0,0)"></path>
<path d="M 641.98 977.356 L 642.615 977.44 C 644.443 979.22 642.79 988.579 642.496 992.404 C 640.576 1017.4 640.13 1044.34 643.208 1069.24 C 596.265 1061.07 545.101 1045.35 497.779 1033.77 C 483.712 1030.28 469.587 1027.02 455.409 1024 C 514.682 1010.01 583.309 987.055 641.98 977.356 z" fill="rgb(254,254,254)" transform="translate(0,0)"></path>
<path d="M 685.833 1203.54 C 687.994 1204.67 692.142 1212.33 693.657 1214.86 C 708.544 1239.72 726.18 1261.73 745.512 1283.34 C 732.012 1290.43 711.656 1297.65 697.194 1303.12 C 671.345 1312.89 646.183 1322.09 620.718 1333 C 606.063 1339.56 591.084 1346.48 575.883 1351.56 C 590.498 1331.47 606.711 1311.76 621.109 1291.55 C 642.796 1261.1 660.963 1231.48 685.833 1203.54 z" fill="rgb(254,254,254)" transform="translate(0,0)"></path>
<path d="M 766.374 1304.51 C 797.143 1330.77 809.618 1339.86 844.651 1360.4 C 831.04 1373.87 815.279 1384.74 799.957 1396.22 L 739.664 1441.64 C 724.514 1453.47 709.77 1466.14 694.221 1477.42 C 704.419 1452.96 715.356 1429.39 725.202 1404.63 C 738.587 1370.98 751.197 1337.4 766.374 1304.51 z" fill="rgb(254,254,254)" transform="translate(0,0)"></path>
<path d="M 645.375 1091.96 C 647.383 1093.02 648.855 1102.45 649.764 1105.86 C 656.316 1131.21 664.487 1156.12 674.23 1180.43 C 620.99 1187.33 570.527 1189 517.336 1193.5 L 487.422 1196.29 C 501.626 1185.84 519.62 1175.91 534.468 1165.35 C 571.461 1139.02 606.684 1115.7 645.375 1091.96 z" fill="rgb(254,254,254)" transform="translate(0,0)"></path>
<metadata><recraft-signature>{"signed_by": "recraft", "signature_b64": "6NBqzNF1q13LKoInZTVbqkhN0ZYFR357BzKrDKJlx6RFYH5YJ4veNvYBY2uG9om3KUoRgk+xgLEKlUa1CBslDg==", "signing_algo": "Ed25519", "generation_timestamp": 1772985959, "identifier": "a893bb9a-a982-4e5e-b691-f27808691adb"}</recraft-signature></metadata></svg>