<svg xmlns="http://www.w3.org/2000/svg" height="1024" preserveAspectRatio="none" style="display: block;" version="1.1" viewBox="0 0 2048 2048" width="1024">
<path d="M 0 0 L 2048 0 L 2048 2048 L 0 2048 L 0 0 z" fill="rgb(254,254,254)" transform="translate(0,0)"></path>
<path d="M 1001.94 101.403 C 1073.64 92.8256 1151.56 124.177 1213.22 158.423 C 1269.47 189.666 1325.82 231.353 1351.67 292.289 C 1358.62 308.48 1363.41 325.52 1365.89 342.966 C 1377.1 423.617 1348.6 538.952 1322.83 615.389 C 1313.53 642.972 1297.43 679.001 1286.13 707.109 C 1299.49 696.23 1312.24 682.804 1325.42 671.907 C 1419.51 594.127 1560.39 496.389 1688.35 504.82 C 1767.89 510.06 1832.7 569.079 1881.84 625.193 C 1952.83 706.263 1985.58 796.906 1975.14 904.741 C 1967.18 986.897 1950.41 1080.83 1881.67 1135.92 C 1796.99 1203.78 1655.35 1211.31 1551.11 1208.75 C 1521.77 1208.03 1485.76 1204.26 1456.8 1201.68 C 1564.05 1266.22 1699.98 1365.77 1742.8 1490.05 C 1766.66 1559.26 1738.86 1644.82 1706.04 1708.21 C 1691.45 1736.72 1674.56 1763.99 1655.53 1789.76 C 1644.42 1804.56 1631.94 1820.72 1618.2 1833.22 C 1568.03 1878.45 1496.63 1902.01 1431.39 1915.21 C 1363.88 1928.87 1298 1935.32 1234.76 1902.42 C 1212.51 1891.03 1192.39 1875.89 1175.28 1857.66 C 1111.74 1789.88 1058.55 1650.23 1030.75 1562.02 C 1027.9 1552.12 1025.28 1542.16 1022.9 1532.13 C 1016.61 1555.21 1011.25 1578.12 1003.83 1600.93 C 977.006 1683.43 918.114 1826.58 849.132 1880.34 C 791.305 1925.42 731.089 1930.65 660.682 1922.1 C 601.5 1914.92 528.746 1897.53 477.334 1866.41 C 443.925 1846.19 415.659 1819.67 391.677 1788.99 C 338.251 1720.64 287.588 1610.85 298.764 1522.97 C 307.528 1454.06 348.722 1400.83 395.236 1352.51 C 426.95 1319.38 461.647 1289.23 498.888 1262.45 C 527.263 1241.84 559.855 1223.34 586.558 1202.48 C 554.06 1206.03 521.436 1208.32 488.76 1209.32 C 406.01 1211.54 294.174 1199.98 218.743 1168.1 C 106.013 1120.45 73.1798 989.755 70.5964 878.667 C 69.7546 842.47 73.8729 785.655 86.7874 751.934 C 105.776 702.353 146.513 648.693 183.076 609.877 C 237.855 553.84 290.186 503.76 373.867 504.346 C 506.976 505.277 670.024 617.439 761.261 705.803 C 753.484 690.887 747.898 674.777 741.235 659.435 C 709.754 586.947 691.993 514.57 683.78 435.937 C 676.433 365.592 681.227 297.166 728.188 239.969 C 766.557 193.236 853.879 143.308 910.364 122.641 C 939.884 111.769 970.65 104.634 1001.94 101.403 z" fill="rgb(0,0,0)" transform="translate(0,0)"></path>
<path d="M 446.808 717.197 C 475.104 715.891 475.335 725.401 495.856 727.996 C 519.509 718.575 536.109 721.59 555.849 736.768 C 579.703 739.52 589.431 743.591 611.638 752.399 C 654.035 769.215 691.564 791.034 728.998 816.966 C 782.282 853.878 826.194 901.764 872.836 946.391 L 920.025 991.399 C 930.414 1001.3 941.711 1011.19 950.892 1022.12 C 967.84 1042.29 965.884 1050.96 940.054 1055.23 C 904.535 1061.74 867.643 1060.48 832.042 1064.98 C 780.454 1071.5 730.267 1080.96 678.328 1085.84 C 617.32 1089.59 551.144 1087.92 492.277 1069.54 C 481.325 1066.12 467.006 1056.96 460.352 1055.04 C 445.531 1050.75 438.973 1052.62 423.009 1044.64 C 407.415 1036.85 401.886 1027.18 389.153 1018.82 C 386.364 1016.99 374.2 1017.18 364.878 1010.8 C 346.907 998.51 338.911 987.875 333.602 967.106 C 286.405 943.111 307.257 926.067 301.439 917.786 C 294.703 908.197 279.861 905.048 274.973 892.826 C 274.196 890.881 274.27 891.724 275.059 889.735 C 281.02 888.311 289.816 894.107 295.432 892.801 C 295.309 889.476 291.365 885.689 288.67 883.919 C 261.753 866.233 221.685 842.797 207.853 812.766 C 238.417 790.246 279.436 783.768 316.187 779.674 C 321.517 779.081 327.025 779.339 328.563 773.423 C 325.198 766.677 318.276 770.51 309.59 767.365 L 309.762 765.314 C 317.773 757.213 344.961 753.879 356.41 752.851 C 357.379 751.195 358.362 749.547 359.36 747.907 C 377.505 718.168 392.806 735.594 418.475 731.027 C 427.267 729.463 431.356 720.957 446.808 717.197 z" fill="rgb(254,254,254)" transform="translate(0,0)"></path>
<path d="M 517.929 933.895 C 523.407 934.364 537.33 937.73 543.236 938.958 C 557.08 941.779 570.952 944.459 584.85 946.998 C 624.488 954.268 664.407 958.844 703.943 967.056 C 734.662 973.437 763.518 982.919 793.633 991.976 C 804.578 995.267 821.164 999.768 831.661 1004.91 C 832.909 1005.52 832.586 1006.42 832.768 1008.18 C 813.809 1010.98 786.928 1008.97 767.541 1006.89 C 689.244 998.504 587.073 971.652 517.929 933.895 z" fill="rgb(0,0,0)" transform="translate(0,0)"></path>
<path d="M 538.368 887.131 C 543.029 887.053 547.834 887.681 552.485 888.226 C 635.595 897.957 717.192 920.829 790.065 962.641 C 802.22 969.616 830.334 982.885 835.43 995.777 C 820.939 993.632 801.219 983.802 786.388 979.927 C 700.183 957.403 621.912 917.203 538.368 887.131 z" fill="rgb(0,0,0)" transform="translate(0,0)"></path>
<path d="M 1590.17 719.229 C 1615.6 717.96 1615.31 727.217 1635.87 734.383 L 1637.2 734.835 C 1657.56 731.09 1673.21 725.424 1689.96 744.218 L 1689.89 745.454 L 1685.84 746.376 L 1684.75 747.443 L 1684.82 747.374 C 1692.87 750.709 1700.78 755.354 1707.93 758.221 C 1708.72 747.115 1716.8 752.054 1724.59 754.807 C 1728.88 756.322 1736.12 760.468 1737.7 764.728 C 1734.95 771.677 1725.19 769.595 1719.68 774.388 C 1720.98 775.892 1721.02 776.233 1723.23 776.266 C 1738.48 776.5 1752.23 776.408 1767.31 779.965 C 1791.89 785.764 1823.78 795.61 1842.72 813.058 C 1827.04 836.903 1793.93 863.288 1770.66 880.863 C 1765.99 884.395 1756.85 885.121 1753.11 889.327 C 1762.2 893.738 1771.42 887.281 1775.41 890.579 C 1775.9 904.507 1761.3 909.811 1750.86 911.725 C 1745.6 912.69 1750.7 932.483 1745.74 940.223 C 1737.3 953.416 1730.91 956.401 1716.68 961.493 C 1705.79 1001.87 1696.15 1000.71 1660.74 1017.15 C 1654.37 1020.1 1644.64 1033.52 1635.99 1037.47 C 1621.35 1044.15 1606.71 1048.06 1591.58 1053.34 C 1527.07 1077.84 1471.08 1089.6 1401.87 1088.26 C 1341.25 1086.56 1292.21 1075.71 1231.66 1067.13 C 1186.88 1060.56 1138.25 1064.3 1095.09 1050.5 C 1084.28 1046.21 1089.7 1032.91 1094.73 1027.1 C 1142.14 972.415 1200.01 928.313 1249.21 875.495 C 1253.64 870.738 1259.81 864.306 1264.67 860.154 C 1312.52 819.273 1366.13 782.202 1424.38 757.87 C 1440.58 751.098 1457.2 747.164 1473.97 742.312 C 1489.53 737.273 1495.85 727.824 1515.96 724.471 C 1538.46 720.719 1539.95 727.731 1559.51 728.511 C 1565.28 728.741 1580.22 720.926 1590.17 719.229 z" fill="rgb(254,254,254)" transform="translate(0,0)"></path>
<path d="M 1528.34 938.308 L 1531.74 938.021 L 1531.73 938.914 C 1523.84 943.406 1504.74 950.344 1495.69 954.046 C 1426.55 982.344 1351.21 1001.84 1276.6 1007.54 C 1259.77 1008.82 1238.65 1009.54 1222.25 1006.57 C 1218.98 1005.66 1218.96 1005.61 1216 1003.91 L 1216.2 1002.57 C 1317.84 965.706 1422.82 957.296 1528.34 938.308 z" fill="rgb(0,0,0)" transform="translate(0,0)"></path>
<path d="M 1512.62 882.352 L 1513.18 882.377 L 1512.96 883.167 C 1498.87 890.514 1474.52 899.396 1459.01 906.19 C 1421.29 922.71 1380.28 941.051 1341.42 954.833 C 1299.45 969.717 1255.93 980.864 1213.52 995.655 L 1212.16 995.018 C 1213.63 988.868 1237.25 975.053 1243.6 970.721 C 1324.32 915.674 1419.56 902.671 1512.62 882.352 z" fill="rgb(0,0,0)" transform="translate(0,0)"></path>
<path d="M 977.361 1119.06 C 988.46 1118.89 990.048 1126.13 989.81 1135.82 C 989.435 1151.07 986.531 1166.38 984.73 1181.5 C 981.686 1207.04 973.676 1231.51 969.836 1256.9 C 965.631 1285.85 963.276 1315.14 957.851 1343.93 C 953.549 1366.46 948.557 1389.14 942.59 1411.29 C 921.139 1481.44 886.202 1558.53 838.678 1614.98 C 826.218 1629.78 818.828 1627.82 805.499 1637.51 C 801.612 1640.33 793.685 1654.39 787.417 1660.09 C 770.202 1675.73 754.445 1677.07 732.67 1676.93 C 716.325 1693.37 707.103 1701.86 680.778 1696.43 C 675.428 1695.35 670.001 1692.73 664.421 1694.12 C 656.311 1696.13 638.521 1708.23 629.891 1704.21 L 629.513 1702.73 C 632.703 1699.85 641.7 1693.15 641.028 1688.99 C 632.467 1686.29 604.194 1706.16 595.318 1711.47 C 575.99 1723.25 555.991 1733.88 535.424 1743.33 L 530.697 1736.71 C 527.174 1730.74 525.345 1727.08 522.487 1720.75 C 525.327 1699.93 531.273 1679.22 536.756 1659 C 538.633 1652.07 548.374 1626.74 545.838 1621.67 C 541.085 1623.54 538.16 1631.28 533.849 1631.83 C 524.313 1617.16 535.261 1594.31 532.129 1584.08 C 526.368 1565.27 509.493 1554.51 523.576 1530.25 C 526.566 1525.09 531.924 1515.99 533.564 1509.65 C 530.493 1497.15 525.659 1479.74 532.915 1468.1 C 538.402 1459.29 548.934 1449.73 552.275 1439.26 C 555.856 1428.05 553.343 1420.03 559.96 1409.1 C 604.144 1336.14 668.073 1279.57 740.128 1235.1 C 781.702 1211.06 825.071 1190.51 868.27 1169.62 C 903.898 1152.39 938.985 1129.82 977.361 1119.06 z" fill="rgb(254,254,254)" transform="translate(0,0)"></path>
<path d="M 914.817 1211.05 L 916.268 1212.12 C 915.971 1216.74 896.87 1237.66 892.744 1243.29 C 856.95 1292.14 817.711 1335.35 774.8 1378.07 C 750.555 1402.21 727.27 1428.29 702.713 1452.48 L 702.171 1452.53 L 701.954 1451.71 C 749.682 1374.31 798.431 1299.44 868.948 1240.69 C 880.849 1230.78 899.817 1215.17 914.817 1211.05 z" fill="rgb(0,0,0)" transform="translate(0,0)"></path>
<path d="M 923.559 1218.64 C 924.69 1219.94 925.465 1220.66 924.997 1222.61 C 903.22 1313.08 814.222 1422.4 751.148 1483.87 L 750.665 1483 C 762.025 1462.93 775.67 1442.03 787.579 1422 C 816.504 1373.36 846.087 1323.89 878.641 1277.63 C 892.173 1258.4 909.037 1237.44 923.559 1218.64 z" fill="rgb(0,0,0)" transform="translate(0,0)"></path>
<path d="M 1062.36 1119.07 C 1079.76 1118.26 1114.66 1134.43 1130.9 1142.4 C 1162.66 1157.99 1191.82 1175.93 1224.16 1191.35 C 1315.63 1234.96 1400.55 1294.42 1463.88 1374.34 C 1482.71 1398.11 1490.97 1407.97 1491.52 1438.82 C 1497.46 1448.33 1506.02 1455.04 1511.06 1466.66 C 1518.53 1483.89 1513.09 1491.08 1513.93 1507.65 C 1514.23 1513.67 1521.37 1524.93 1523.93 1531.72 C 1533.25 1556.41 1521.6 1568.11 1512.66 1588.23 C 1515.92 1610.63 1521.68 1611.93 1510.2 1633.86 C 1507.96 1627.35 1505.88 1613.96 1501.18 1610.61 L 1499.47 1611.33 C 1492.17 1630.25 1532.12 1701.45 1526.71 1732.28 C 1524.66 1733.21 1523.45 1732.06 1520.52 1730.98 C 1520.35 1732.68 1525.1 1743.5 1526.19 1746.29 C 1493.75 1737.51 1467.94 1723.13 1440 1705.1 C 1434.3 1701.42 1419.65 1691.5 1413.84 1691.15 L 1412.69 1692.5 C 1414.05 1698.82 1423.59 1702.8 1428.83 1707.68 C 1403.51 1707.61 1402.51 1700.39 1381.52 1694.04 C 1370.36 1696.56 1363.99 1698.17 1352.64 1698.78 C 1327.86 1700.13 1329.69 1684.41 1309.36 1677.69 C 1295.42 1673.08 1284.81 1675.94 1270.77 1667.31 C 1258.46 1659.74 1254.48 1649.46 1244.7 1641.13 C 1236.61 1634.63 1226.04 1632.33 1218.77 1624.57 C 1143.85 1544.64 1108.72 1437.66 1088.68 1332.06 C 1083.55 1305.02 1082.78 1277.91 1077.69 1252.02 C 1070.04 1213.1 1059.3 1175.68 1057.44 1135.71 C 1057.08 1128.34 1057.38 1124.2 1062.36 1119.07 z" fill="rgb(254,254,254)" transform="translate(0,0)"></path>
<path d="M 1134.3 1211.58 C 1140.94 1212.16 1147.68 1216.07 1153.06 1219.88 C 1237.21 1279.52 1294.4 1365.42 1345.83 1452.36 C 1341.46 1449.65 1320.71 1427.68 1316.14 1422.96 C 1262.82 1367.98 1207.68 1311.67 1162.04 1250.1 C 1154.77 1240.28 1139.49 1221.97 1134.3 1211.58 z" fill="rgb(0,0,0)" transform="translate(0,0)"></path>
<path d="M 1127.81 1222.59 C 1130.93 1224.71 1133.51 1229.56 1135.98 1232.57 C 1187.56 1295.41 1228.1 1365.56 1267.83 1436.22 C 1277.83 1454.01 1288.52 1472.4 1300.35 1489.27 C 1293.46 1486.75 1259.72 1447.72 1253.1 1440.45 C 1208.4 1391.35 1171.01 1334.26 1143.67 1273.77 C 1137.47 1260.06 1127.66 1237.26 1127.81 1222.59 z" fill="rgb(0,0,0)" transform="translate(0,0)"></path>
<path d="M 1024.35 229.651 C 1038.28 247.256 1052.7 274.021 1061.91 294.604 C 1066.01 303.78 1073.9 338.058 1083.82 340.551 C 1085.2 338.658 1081.93 322.947 1081.61 319.201 C 1088.59 326.638 1099.52 333.957 1103.94 342.657 C 1106.54 347.76 1108.39 353.265 1111.27 358.984 C 1123.74 364.485 1151.59 375.428 1149.15 393.269 C 1148.95 394.157 1148.79 399.623 1149.42 400.398 C 1161.77 415.653 1178.41 427.584 1182.86 447.968 C 1184.77 456.739 1183.22 461.612 1181.06 470.063 C 1184.47 474.866 1188.19 479.756 1190.97 484.962 C 1213.77 527.713 1186.84 646.696 1173.31 692.573 C 1166.29 716.344 1158.99 740.164 1149.09 762.921 C 1141.09 781.322 1130.82 798.886 1121.68 816.752 L 1079.39 900.237 C 1071.34 915.924 1063.43 931.681 1055.65 947.504 C 1049.06 961.069 1038.79 987.748 1025.56 994.941 C 1000.55 983.948 938.683 831.693 919.587 803.408 C 909.864 789.006 891.411 748.627 884.987 731.149 C 870.793 691.677 860.561 650.891 854.444 609.393 C 849.827 577.19 845.474 525.867 854.164 493.561 C 855.662 487.992 863.432 478.124 867.282 472.983 L 862.423 456.856 C 869.488 429.914 879.303 419.089 899.228 401.642 C 892.633 376.527 919.238 367.422 936.952 358.307 C 946.571 337.014 945.303 336.341 964.711 321.482 C 964.173 325.378 961.442 338.368 961.53 340.993 C 964.964 339.997 969.113 336.333 970.299 333.118 C 984.926 293.485 997.851 263.845 1024.35 229.651 z" fill="rgb(254,254,254)" transform="translate(0,0)"></path>
<path d="M 1045.29 541.718 C 1049.8 551.842 1052.88 585.956 1054.51 598.939 C 1065.32 685.177 1067.32 774.782 1034.03 856.676 C 1032.51 859.724 1031.76 862.239 1028.92 863.931 C 1024.25 859.515 1031.39 710.795 1033.87 693.622 C 1041.55 640.451 1047.97 595.795 1045.29 541.718 z" fill="rgb(0,0,0)" transform="translate(0,0)"></path>
<path d="M 1003.73 542.44 C 1003.92 546.558 1003.49 552.195 1003.28 556.406 C 1000.08 618.733 1013.98 680.005 1017.11 742.255 C 1019.2 783.982 1017.79 825.73 1020.23 867.266 C 1017.72 863.56 1016.03 860.334 1013.91 856.429 C 981.453 778.524 983.849 703.957 991.791 621.177 C 993.935 598.831 997.925 564.13 1003.73 542.44 z" fill="rgb(0,0,0)" transform="translate(0,0)"></path>
<path d="M 1650.18 530.393 C 1747.81 520.187 1822.69 592.072 1879.24 661.922 C 1941.31 738.581 1960.91 828.215 1947.19 924.757 C 1940.05 974.934 1929.91 1025.36 1904.28 1070.1 C 1892.29 1088.51 1874.24 1108.38 1856.83 1121.42 C 1805.72 1159.6 1737.58 1169.14 1675.61 1177.18 C 1569.59 1190.95 1460.12 1176.78 1355.45 1158.23 C 1352.83 1157.77 1333.05 1149.74 1331.54 1148.5 C 1319.13 1138.41 1231.05 1118.24 1226.18 1111.92 C 1230.65 1110.69 1244.24 1114.95 1249.11 1116.44 C 1289.85 1128.9 1330.81 1135.59 1373.17 1139.32 C 1389.61 1140.76 1406.29 1143.33 1422.93 1144.53 C 1471.91 1147.95 1521.1 1147.36 1569.98 1142.76 C 1662.73 1134.54 1758.12 1114.89 1830.41 1052.32 C 1895.08 999.016 1921.39 924.972 1922.31 841.997 C 1923.72 713.884 1796.24 595.294 1669.97 597.303 C 1600.94 598.401 1531.04 625.032 1470.76 659 C 1367.83 717.001 1261.23 784.178 1182.2 873.373 C 1172.46 884.35 1164.76 898.101 1154.36 908.77 L 1153.38 909.764 C 1160.7 886.947 1224.7 809.844 1242.14 784.667 C 1248.02 776.186 1283.43 743.705 1292.38 735.235 C 1377.82 654.389 1530.75 542.684 1650.18 530.393 z" fill="rgb(254,254,254)" transform="translate(0,0)"></path>
<path d="M 1219.37 1131.81 C 1231.68 1137.83 1245.86 1141.23 1258.94 1145.16 C 1287.86 1153.84 1318.24 1161.57 1346.41 1172.29 C 1367.87 1180.46 1388.16 1193.15 1408.13 1204.44 C 1491.65 1251.64 1570.14 1305.28 1637.11 1374.41 C 1669.39 1407.74 1706.01 1455.21 1718.8 1499.95 C 1724.21 1518.85 1725.63 1539.16 1725.25 1558.73 C 1723.74 1635.12 1654.72 1762.92 1599.36 1815.64 C 1591.48 1823.14 1583.11 1830.41 1573.94 1836.31 C 1512.53 1875.82 1401.12 1902.15 1328.47 1900.31 C 1274.45 1898.95 1229.55 1877.17 1192.66 1838.21 C 1173.75 1818.23 1159.86 1795.26 1146.28 1771.53 C 1093.75 1679.74 1051.81 1561.97 1035.22 1457.79 C 1032.2 1438.83 1029.09 1419.49 1029.66 1400.25 C 1030.96 1372.01 1033.18 1343.89 1032.74 1315.55 C 1032.66 1310.41 1030.86 1296.82 1033.5 1293.67 C 1038.32 1296.13 1037.74 1317.61 1038.39 1324.44 C 1040.15 1343.1 1042.97 1361.66 1046.81 1380.01 C 1074.52 1510.65 1116.51 1634.72 1198.87 1742.16 C 1206.3 1751.85 1216.1 1761.9 1224.38 1770.72 C 1273.38 1822.86 1338.42 1856.08 1411.04 1855.78 C 1466.34 1856.35 1536.35 1838.15 1579.9 1800.86 C 1631.17 1747.43 1663.86 1670.32 1662.99 1595.68 C 1661.19 1441.62 1524.59 1324.51 1409.66 1242.03 C 1363.41 1208.83 1316.18 1177.14 1264.28 1153.84 C 1256.76 1150.46 1221.02 1138.82 1218.33 1136.13 L 1219.37 1131.81 z" fill="rgb(254,254,254)" transform="translate(0,0)"></path>
<path d="M 831.166 1133.21 L 832.519 1134.81 C 831.775 1136.07 738.482 1178.64 726.724 1185.37 C 619.757 1246.58 519.316 1328.13 443.446 1425.68 C 422.501 1452.61 404.36 1489.15 394.501 1521.48 C 372.632 1594.39 384.265 1669.31 421.477 1735.06 C 453.403 1791.47 491.492 1828.56 555.371 1846.47 C 619.586 1864.48 698.496 1859.52 756.411 1826.12 C 842.572 1776.44 907.394 1663.49 943.453 1574.34 C 965.797 1518.83 983.079 1461.4 995.087 1402.77 C 1000.3 1378.61 1004.14 1354.16 1006.59 1329.56 C 1007.41 1321.07 1007.65 1296.6 1009.21 1291.04 L 1010.11 1290.73 C 1011.59 1293.9 1011.58 1328.82 1011.57 1334.34 C 1011.5 1355.15 1012.79 1373.37 1015.32 1394 C 1018.37 1416.23 1012.94 1443.33 1008.95 1465.65 C 990.938 1565.83 958.086 1662.75 911.477 1753.24 C 880.27 1814.11 840.548 1871.96 771.523 1892.18 C 698.749 1913.49 571.522 1886.23 504.894 1852.27 C 420.013 1808.99 363.499 1714.04 335.37 1626.2 C 319.251 1574.94 316.856 1507.67 345.325 1459.64 C 403.261 1361.9 500.871 1290.76 595.02 1230.61 C 631.106 1207.55 667.266 1186.92 705.901 1169 C 719.041 1162.9 740.141 1158.39 754.488 1154.53 C 780.168 1147.87 805.731 1140.76 831.166 1133.21 z" fill="rgb(254,254,254)" transform="translate(0,0)"></path>
<path d="M 358.592 531.402 C 359.578 531.319 360.564 531.248 361.552 531.188 C 428.304 526.891 490.287 552.894 548.103 583.243 C 578.052 598.712 606.93 616.169 634.545 635.497 C 692.658 676.612 752.157 729.235 801.85 780.131 C 812.621 791.162 894.958 896.297 895.348 902.664 C 888.714 901.093 874.05 882.152 869.043 876.364 C 843.543 846.882 814.688 820.156 785.124 794.722 C 697.734 719.541 526.65 609.564 411.125 598.475 C 339.652 591.614 276.809 610.013 221.615 655.944 C 169.486 699.325 128.457 755.267 122.651 824.631 C 116.516 897.935 143.858 972.709 190.996 1028.34 C 197.529 1035.31 204.314 1042.04 211.338 1048.51 C 237.14 1071.92 266.699 1090.8 298.775 1104.39 C 414.257 1152.93 591.125 1149.39 713.097 1133.46 C 736.461 1130.82 759.203 1125.26 782.171 1120.65 C 796.518 1117.78 816.906 1111.38 831.168 1111.22 C 810.926 1121.18 786.008 1125.31 764.379 1131.84 C 742.359 1138.49 721.117 1147.56 699.048 1153.93 C 655.281 1166.57 608.773 1173.48 563.499 1178.22 C 461.981 1188.85 269.576 1185.16 187.534 1118.12 C 170.587 1104.28 155.152 1088.26 143.345 1069.76 C 114.143 1024.02 102.544 958.136 97.3705 904.448 C 92.7544 856.544 95.5666 798.817 113.556 753.727 C 126.058 722.389 147.698 690.728 169.188 664.785 C 203.322 623.577 250.576 572.051 299.056 548.15 C 318.092 538.765 337.51 533.409 358.592 531.402 z" fill="rgb(254,254,254)" transform="translate(0,0)"></path>
<path d="M 1015.64 126.416 C 1058.49 121.464 1122.75 142.888 1162.08 161.618 C 1220.99 189.673 1299.72 236.465 1326.43 298.37 C 1334.29 316.646 1339.31 336.013 1341.33 355.804 C 1349.9 441.595 1312.69 577.109 1279.98 656.032 C 1266.49 688.95 1243.49 735.21 1225.95 764.533 C 1217.9 777.997 1142.76 887.261 1138.71 888.975 L 1137.69 887.573 C 1139.67 877.646 1155.44 859.489 1160.89 849.408 C 1223.74 733.185 1260.53 617.813 1276.28 486.731 C 1297.15 313.024 1213.46 184.359 1038.97 152.225 C 1006.45 146.058 949.293 165.086 920.268 178.792 C 857.579 208.393 810.336 255.505 787.299 321.765 C 741.378 453.845 788.673 641.011 845.999 762.882 C 858.8 790.8 872.796 818.155 887.948 844.871 C 896.952 860.508 907.83 874.123 915.485 890.353 C 902.04 879.545 881.685 847.373 870.134 831.876 C 855.849 812.711 835.533 788.789 823.244 768.11 C 760.599 662.706 719.564 540.412 708.291 418.195 C 703.714 361.956 708.895 299.16 749.247 255.779 C 811.395 188.968 925.247 133.061 1015.64 126.416 z" fill="rgb(254,254,254)" transform="translate(0,0)"></path>
<path d="M 924.405 896.735 C 941.704 899.938 984.833 1006.02 1008.64 1018.86 C 1045.64 1038.8 1061.71 993.243 1076.6 966.419 C 1087.15 947.609 1098.11 929.038 1109.48 910.718 C 1112.39 906.107 1116.28 898.457 1121.5 897.271 C 1129.38 899.262 1148.05 912.299 1152.61 919.156 C 1151.31 936.54 1067.91 999.153 1063.33 1030.43 C 1055.36 1084.93 1105.62 1080.84 1144.42 1086.89 C 1166.6 1090.34 1191.11 1092.74 1214.35 1097.73 C 1211.04 1111.67 1205.7 1128.5 1200.95 1142.06 C 1171.77 1131.64 1143.2 1117.4 1114.34 1106.01 C 1089.31 1096.14 1069.05 1080.88 1042.93 1097.87 C 1027.84 1111.25 1029.88 1132.11 1032.08 1150.54 C 1037.11 1192.71 1043.16 1234.37 1047.13 1276.68 C 1031.15 1278.19 1015.71 1278 999.678 1278.06 C 1003.74 1247.54 1021.69 1140.19 1015.62 1117.81 C 1012.99 1108.12 1007.51 1099.76 998.506 1094.97 C 990.739 1090.83 981.524 1089.76 972.915 1091.31 C 955.016 1094.54 924.274 1110.37 906.24 1117.77 C 887.309 1125.53 867.631 1131.94 848.09 1137.98 C 844.058 1131.12 837.098 1106.03 834.678 1097.52 C 850.999 1092.37 867.904 1090.99 885.687 1088.29 C 910.193 1084.34 962.139 1087.53 979.904 1067.71 C 1024.14 1018.33 899.486 949.878 897.173 921.502 C 899.523 915.178 918.21 900.748 924.405 896.735 z" fill="rgb(254,254,254)" transform="translate(0,0)"></path>
<metadata><recraft-signature>{"signed_by": "recraft", "signature_b64": "RXXHFAvY1gDUzJjciJuaG4MnI5DSiZ0OtyPkwtoORpAiGUq2irYBgVmc40BonOOlA2Ip7SIHhm/kmESJ9wYSBQ==", "signing_algo": "Ed25519", "generation_timestamp": 1772985945, "identifier": "a7003432-ab94-462f-bc50-4c13cc6fd571"}</recraft-signature></metadata></svg>