<svg xmlns="http://www.w3.org/2000/svg" height="1024" preserveAspectRatio="none" style="display: block;" version="1.1" viewBox="0 0 2048 2048" width="1024">
<path d="M 0 0 L 2048 0 L 2048 2048 L 0 2048 L 0 0 z" fill="rgb(254,254,254)" transform="translate(0,0)"></path>
<path d="M 991.034 419.084 C 1325.52 401.012 1611.2 657.812 1628.73 992.33 C 1646.27 1326.85 1389.01 1612.11 1054.46 1629.11 C 720.675 1646.07 436.201 1389.52 418.705 1055.76 C 401.209 721.999 657.302 437.114 991.034 419.084 z" fill="rgb(1,1,1)" transform="translate(0,0)"></path>
<path d="M 1021.43 430.249 C 1349.09 429.125 1615.71 693.693 1617.1 1021.36 C 1618.5 1349.02 1354.16 1615.86 1026.49 1617.53 C 698.442 1619.21 431.222 1354.48 429.822 1026.43 C 428.422 698.373 693.372 431.375 1021.43 430.249 z" fill="rgb(254,254,254)" transform="translate(0,0)"></path>
<path d="M 994.509 487.435 C 1144.63 482.164 1275.35 527.824 1387.9 628.133 C 1491.43 721.156 1553.88 851.417 1561.56 990.388 C 1569.71 1133.63 1520.95 1274.29 1425.88 1381.75 C 1329.39 1487.95 1195.43 1552.54 1052.25 1561.91 C 1039.97 1562.43 1028.61 1562.79 1016.31 1562.67 C 678.134 1559.18 420.15 1234.15 499.459 902.868 C 523.08 799.98 576.406 706.297 652.814 633.456 C 659.763 593.13 662.698 569.05 712.967 581.979 C 796.275 525.055 893.728 492.329 994.509 487.435 z" fill="rgb(1,1,1)" transform="translate(0,0)"></path>
<path d="M 685.483 589.101 C 697.302 588.436 705.534 588.25 710.652 600.5 C 722.075 627.842 730.526 658.791 736.61 687.764 C 745.434 729.787 760.438 771.141 779.667 809.521 C 788.203 826.638 798.642 842.296 807.203 859.154 L 805.595 872.338 C 808.083 878.554 811.172 882.254 815.36 887.18 C 820.03 857.269 832.22 824.859 860.929 810.878 C 879.685 801.745 902.509 799.182 922.415 805.663 C 946.702 849.652 985.889 926.625 980.715 978.097 C 977.988 1005.22 947.62 1011.98 925.057 1006.57 C 901.688 1000.97 896.842 986.092 888.461 966.456 C 874.186 933.012 861.683 896.605 842.505 865.689 C 842.946 879.56 846.354 896.78 848.714 910.743 C 851.876 928.886 854.67 947.09 857.096 965.345 C 853.399 969.077 849.759 971.164 845.38 974.026 C 856.806 981.698 866.497 988.454 876.582 997.551 C 892.523 1011.93 913.487 1025.42 935.15 1028.28 C 949.827 1030.22 960.69 1020.84 971.112 1012.16 C 985.861 1019.92 990.368 1021.24 1007.15 1022.01 C 982.515 1056.32 977.106 1090.54 1005 1125.47 C 997.199 1099.69 990.634 1075.57 1002.22 1050.11 C 1012.64 1026.05 1027.57 1019.01 1048.09 1006.97 C 1070.48 993.823 1061.5 992.873 1090.79 993.13 C 1147.13 993.624 1170.03 963.497 1190.65 916.138 C 1198.89 924.57 1238.26 956.759 1249.43 957.406 C 1292.42 959.898 1310.27 910.538 1341.26 888.536 C 1353.49 899.26 1360.52 913.798 1371.72 925.554 C 1367.13 907.96 1361.76 895.71 1345.63 885.628 C 1361.64 871.274 1375.04 860.697 1396.59 847.267 C 1424.2 830.054 1481.48 810.306 1507.67 841.264 C 1510.33 844.405 1510.57 854.379 1508.49 858.378 C 1496.01 882.337 1465.16 893.283 1446.68 912.366 C 1432.16 927.286 1425.76 941.554 1412.13 955.928 C 1397.63 971.209 1381.02 977.694 1368.13 994.444 C 1335.38 1036.99 1331.87 1084.09 1281.29 1109.68 C 1245.93 1126.82 1207.41 1159.21 1175.35 1182.56 C 1144.59 1204.96 1128.72 1197.25 1094.45 1189.18 C 1110.28 1203.62 1121.59 1200.17 1139.32 1205.5 L 1139.19 1207 C 1136.05 1210.57 1133.89 1212.76 1128.84 1213.09 C 1087 1215.84 1064.17 1196.27 1034.14 1172.33 C 1043.51 1198.59 1070.52 1214.81 1096.59 1220.61 C 1107.33 1223 1117.16 1222.54 1128.05 1221.86 C 1123.12 1244.14 1116.3 1276.17 1114 1299.03 C 1105.95 1379 1108.6 1462.19 1111.37 1542.32 C 1085.22 1546.2 1058.48 1550.05 1031.99 1550.72 C 960.105 1552.55 881.696 1537.01 816.285 1507.3 C 817.035 1500.68 818.2 1494.07 819.196 1487.46 C 828.593 1425.05 835.336 1361.98 836.443 1298.85 C 836.708 1283.76 835.452 1268.25 834.998 1253.16 C 854.601 1270.94 862.295 1293.6 871.306 1317.9 C 872.447 1298.38 868.61 1287.8 864.144 1268.96 C 873.601 1250.88 964.312 1254.33 1001.17 1209.58 C 988.449 1212.69 972.83 1218.25 959.89 1222.11 C 936.215 1229.22 911.774 1233.47 887.089 1234.77 C 880.839 1235.09 870.439 1235.89 864.944 1233.09 L 864.637 1231.52 C 867.643 1228.81 897.804 1219.85 909.507 1212.89 C 882.825 1213.41 845.037 1219.13 825.113 1200.94 C 833.157 1199.9 860.974 1199.83 865.925 1196.96 C 865.316 1194.98 863.409 1194.44 861.377 1193.87 C 840.648 1188.06 815.881 1187.02 801.476 1169.56 C 807.355 1171.91 834.448 1182.27 836.963 1172.9 C 834.742 1170.45 811.442 1162.81 806.677 1160.85 C 790.266 1154.13 785.898 1143.16 779.762 1127.25 C 755.944 1065.6 757.468 999.202 740.903 935.695 C 726.917 882.074 706.024 831.456 691.462 777.924 C 676.325 722.274 652.196 659.294 670.428 601.779 C 672.737 594.495 678.906 591.311 685.483 589.101 z" fill="rgb(254,254,254)" transform="translate(0,0)"></path>
<path d="M 977.454 1283.53 C 980.925 1286.61 981.662 1311.6 981.796 1317.89 C 982.729 1361.62 988.111 1427.38 971.096 1468.16 C 970.057 1468.8 970.791 1468.44 968.713 1468.78 C 968.028 1467.22 968.955 1426.91 969.666 1422.61 C 974.883 1391.12 962.826 1307.21 977.454 1283.53 z" fill="rgb(1,1,1)" transform="translate(0,0)"></path>
<path d="M 1093.29 1297.65 L 1094.57 1299.11 C 1098.44 1323.34 1090.23 1380.43 1089.64 1407.84 C 1089.5 1414.22 1087.59 1448.78 1086.55 1452.73 L 1084.68 1453.38 C 1077.47 1430.35 1080.64 1316.73 1093.29 1297.65 z" fill="rgb(1,1,1)" transform="translate(0,0)"></path>
<path d="M 1021.84 1261.39 C 1023.03 1262.08 1025.26 1262.82 1025.71 1264.18 C 1027.44 1269.39 1011.48 1350.18 1008.4 1362.34 C 1006.7 1369.09 1004.69 1375.17 1001.48 1381.36 L 1000.36 1381.5 L 999.263 1379.95 C 996.422 1353.74 1008.78 1283.93 1021.84 1261.39 z" fill="rgb(1,1,1)" transform="translate(0,0)"></path>
<path d="M 908.299 982.673 C 917.658 983.056 927.711 989.035 938.301 989.788 C 947.808 990.463 963.776 983.244 969.282 983.701 L 969.89 985.434 L 968.385 988.051 C 951.757 1000.3 915.908 1006.04 908.299 982.673 z" fill="rgb(1,1,1)" transform="translate(0,0)"></path>
<path d="M 1198.13 959.439 C 1223.55 957.318 1252.58 974.952 1258.2 1000.53 C 1256.54 999.878 1242.25 985.592 1239.98 983.309 C 1227.22 970.489 1214.06 966.673 1198.13 959.439 z" fill="rgb(1,1,1)" transform="translate(0,0)"></path>
<path d="M 1111.39 1166.54 C 1115.49 1167.12 1131.89 1174.55 1139.27 1176.52 C 1147.76 1178.79 1154.84 1178.58 1161.48 1180.26 L 1160.74 1181.78 C 1142.55 1188.96 1120.21 1185.86 1111.39 1166.54 z" fill="rgb(1,1,1)" transform="translate(0,0)"></path>
<path d="M 813.804 992.383 L 814.25 992.644 L 814.564 993.93 C 802.958 1001.67 784.465 1003.89 771.116 1000.82 C 769.85 1000.06 768.292 998.814 767.066 997.904 L 767.164 996.389 C 772.813 995.522 779.227 996.14 785.151 995.839 C 794.984 995.339 804.12 993.899 813.804 992.383 z" fill="rgb(1,1,1)" transform="translate(0,0)"></path>
<path d="M 884.999 811.291 C 887.923 811.057 890.458 810.983 892.658 812.935 C 890.508 817.154 878.731 819.673 874.232 820.885 C 871.015 821.764 871.215 821.807 867.925 821.443 L 866.897 820.117 C 869.121 813.698 879.249 812.165 884.999 811.291 z" fill="rgb(1,1,1)" transform="translate(0,0)"></path>
<path d="M 717.701 709.25 C 721.852 709.2 723.981 708.807 727.698 710.371 L 727.33 711.596 C 722.05 714.282 711.476 717.225 704.864 719.824 L 693.927 724.594 C 702.204 714.89 705.145 712.369 717.701 709.25 z" fill="rgb(1,1,1)" transform="translate(0,0)"></path>
<path d="M 772.613 900.984 L 774.529 901.48 L 773.818 903.522 C 766.987 910.139 758.732 915.687 749.178 916.927 C 747.79 915.588 748.38 916.434 747.637 914.244 C 751.033 909.188 766.331 903.656 772.613 900.984 z" fill="rgb(1,1,1)" transform="translate(0,0)"></path>
<path d="M 752.96 824.921 C 755.201 824.915 754.707 824.937 756.93 825.493 L 756.751 827.156 C 751.263 833.731 743.477 837.044 735.205 838.344 C 733.557 838.175 731.938 837.892 730.299 837.637 L 730.249 836.47 C 733.852 833.453 747.94 827.348 752.96 824.921 z" fill="rgb(1,1,1)" transform="translate(0,0)"></path>
<path d="M 753.219 806.854 C 754.528 807.537 753.815 806.992 754.876 808.979 C 752.186 816.403 736.526 822.427 729.084 823.757 C 727.78 822.754 728.185 823.415 727.906 821.753 C 735.792 817.117 745.137 810.25 753.219 806.854 z" fill="rgb(1,1,1)" transform="translate(0,0)"></path>
<path d="M 1289.42 1062.71 C 1293.69 1067.93 1284.24 1082.18 1281.11 1087.28 L 1280.55 1087.12 C 1279.08 1082.28 1286.67 1067.19 1289.42 1062.71 z" fill="rgb(1,1,1)" transform="translate(0,0)"></path>
<path d="M 998.192 499.416 C 1014.92 497.978 1033.35 498.805 1050.13 499.6 C 1236.61 508.44 1413.2 644.079 1481.93 814.562 C 1430.66 810.212 1392.32 833.644 1353.15 864.249 C 1341.6 873.27 1328.05 882.584 1318.32 893.228 C 1302.34 910.713 1291.22 930.697 1269.26 941.789 C 1263.33 944.786 1255.14 948.562 1248.38 946.462 C 1237.81 931.107 1229.33 890.277 1221.35 872.249 C 1210.12 846.903 1200.71 823.215 1193.26 796.416 L 1191.42 790.812 C 1182.18 762.968 1161.95 734.463 1135.44 721.425 C 1120.86 714.364 1104.06 713.435 1088.79 718.845 C 1068.95 725.789 1058.14 740.881 1049.45 758.925 C 1024.86 734.617 992.34 721.479 959.199 738.87 C 938.174 749.902 929.776 773.381 923.428 794.877 C 903.416 789.449 882.193 790.554 862.853 798.031 C 837.294 807.985 825.576 822.608 814.983 847.122 C 794.951 821.138 766.921 758.137 758.672 726.918 C 746.116 679.398 737.382 639.01 719.296 592.468 C 812.802 534.897 887.189 506.184 998.192 499.416 z" fill="rgb(254,254,254)" transform="translate(0,0)"></path>
<path d="M 652.755 651.783 C 659.291 712.539 677.235 773.731 696.136 831.893 C 709.469 872.921 721.175 901.51 731.556 945.269 C 745.806 1002.14 744.188 1060.65 762.99 1116.64 C 772.533 1145.06 780.344 1159.29 796.807 1183.41 C 827.941 1229.01 825.826 1283.27 823.001 1335.84 C 819.987 1391.94 813.003 1446.92 804.463 1502.61 C 777.76 1490.32 743.994 1469.17 719.596 1452.47 C 692.737 1432.69 667.556 1410.73 644.309 1386.81 C 548.182 1287.16 495.268 1153.6 497.067 1015.15 C 499.611 881.612 556.319 744.82 652.755 651.783 z" fill="rgb(254,254,254)" transform="translate(0,0)"></path>
<path d="M 1507 879.78 C 1513.29 885.018 1522.31 945.846 1523.67 956.813 C 1537.57 1067.91 1516.31 1180.56 1462.87 1278.95 C 1409.19 1376.3 1326.76 1454.69 1226.85 1503.42 C 1197.89 1517.24 1168.87 1527.04 1138.22 1536.22 C 1133.62 1537.59 1127.87 1538.74 1123.11 1539.83 C 1121.91 1486.15 1119.08 1430.59 1121.05 1375.79 C 1122.68 1330.33 1124.98 1258.09 1145.53 1217.28 C 1147.67 1213.03 1159.03 1205.96 1163.42 1203.47 C 1198.84 1183.48 1226.48 1155.64 1261.61 1134.05 C 1274.63 1126.05 1301.48 1112.26 1311.13 1103.97 C 1340.97 1078.37 1355.05 1027.46 1380.3 997.506 C 1389.54 986.546 1406.28 977.24 1417.67 965.501 C 1431.6 951.144 1442.16 929.913 1456.46 918.242 C 1473.87 904.036 1490.03 896.191 1507 879.78 z" fill="rgb(254,254,254)" transform="translate(0,0)"></path>
<path d="M 986.735 742.372 C 1012.52 742.432 1033.93 755.797 1048.63 776.463 C 1049.02 786.589 1051.27 796.657 1052.98 806.727 C 1060.24 849.676 1076.25 891.433 1079.22 935.029 C 1081.38 966.838 1055.49 982.447 1027.11 983.097 C 999.884 983.472 997.09 969.8 991.711 946.539 C 983.311 910.213 971.377 877.116 954.415 843.929 C 948.658 832.667 937.273 814.973 933.78 803.388 C 939.703 770.543 949.511 747.086 986.735 742.372 z" fill="rgb(254,254,254)" transform="translate(0,0)"></path>
<path d="M 1064.27 950.82 C 1066.83 950.781 1066.68 950.889 1068.98 952.119 L 1069.46 954.077 C 1065.37 962.753 1045.93 969.446 1036.64 970.979 C 1023.56 973.138 1014.62 971.191 1004.04 963.528 C 1001.44 960.794 996.972 956.657 998.711 952.846 C 1003.4 954.879 1011.32 958.705 1015.71 960.266 C 1031.44 965.864 1050.2 956.933 1064.27 950.82 z" fill="rgb(1,1,1)" transform="translate(0,0)"></path>
<path d="M 980.228 753.295 C 982.811 753.161 986.655 752.633 988.394 754.565 C 985.314 758.494 972.195 760.768 967.27 761.798 C 963.454 762.053 962.897 762.63 959.8 761.106 L 960.602 759.48 C 968.613 755.004 971.446 754.512 980.228 753.295 z" fill="rgb(1,1,1)" transform="translate(0,0)"></path>
<path d="M 1106.58 727.315 C 1114.25 726.713 1121.95 727.959 1129.05 730.947 C 1144.33 737.314 1163.09 756.647 1171 770.906 C 1181.72 790.224 1186.78 816.921 1194.15 838.171 C 1198.35 850.833 1204.46 863.085 1208.82 875.648 C 1216.64 898.208 1224.71 920.359 1233.43 942.594 C 1218.25 928.066 1206.99 924.666 1191.62 913.007 L 1197.95 889.405 C 1193.76 892.788 1189.57 897.085 1185.67 900.87 C 1188.47 893.916 1199.01 865.789 1195.4 860.077 C 1192.41 861.402 1190.61 865.743 1188.87 868.801 L 1187.58 870.603 L 1186.47 870.528 C 1181.94 857.043 1179.46 848.34 1173.04 835.686 C 1174.23 859.163 1184.11 887.962 1171.64 910.285 C 1158.69 933.453 1102.28 945.239 1090.51 915.159 C 1085.06 901.226 1082.57 883.002 1078.55 868.219 C 1071.31 841.612 1064.98 814.464 1059.21 787.487 C 1056.68 775.468 1061.13 756.11 1068.63 746.221 C 1078.68 732.965 1091.25 729.527 1106.58 727.315 z" fill="rgb(254,254,254)" transform="translate(0,0)"></path>
<path d="M 1163.22 893.678 L 1164.26 894.785 C 1169.48 913.14 1131.46 925.538 1116.94 921.822 C 1107.89 919.505 1108.34 920.855 1099.58 915.747 C 1097.33 913.3 1095.5 912.297 1095.29 909.71 C 1102.79 909.061 1114.09 914.55 1125.44 913.281 C 1142.84 911.335 1151.88 906.499 1163.22 893.678 z" fill="rgb(1,1,1)" transform="translate(0,0)"></path>
<path d="M 1102.63 738.233 C 1104.25 738.238 1105.86 738.272 1107.47 738.335 C 1110.76 738.487 1113.16 738.608 1115.43 741.062 L 1114.72 742.844 C 1110.87 745.172 1107.57 744.946 1103.01 745.298 C 1098.98 745.949 1093.82 747.717 1091.02 744.364 L 1092.13 742.313 C 1096.38 739.499 1097.54 739.49 1102.63 738.233 z" fill="rgb(1,1,1)" transform="translate(0,0)"></path>
<metadata><recraft-signature>{"signed_by": "recraft", "signature_b64": "TIsJvjGKXhaFATNLJyZHpNGL2C1Xhl4CBdyCV/ttcLBDArlem/JbzQM/YI1no1jtiEacZWDRkKvj6ASZvWLGCg==", "signing_algo": "Ed25519", "generation_timestamp": 1772985918, "identifier": "04ec3081-ddbb-4e86-b4da-9f6572e5c8e9"}</recraft-signature></metadata></svg>