<svg xmlns="http://www.w3.org/2000/svg" height="1024" preserveAspectRatio="none" style="display: block;" version="1.1" viewBox="0 0 2048 2048" width="1024">
<path d="M 0 0 L 2048 0 L 2048 2048 L 0 2048 L 0 0 z" fill="rgb(254,254,254)" transform="translate(0,0)"></path>
<path d="M 1035.85 247.472 C 1086.25 247.161 1136.57 251.556 1186.15 260.6 C 1387.23 298.612 1564.99 414.885 1680.4 583.878 C 1797.05 754.605 1841.31 964.593 1803.5 1167.88 C 1793.69 1219.94 1779.2 1271.01 1760.21 1320.46 C 1755.4 1333.22 1749.23 1349.94 1743.54 1362.15 C 1689.17 1478.67 1586.89 1592.74 1480.8 1664.79 C 1339.68 1759.69 1171.54 1806.15 1001.72 1797.16 C 957.297 1794.77 921.871 1788.99 878.635 1780.78 C 851.407 1775.29 825.762 1767.2 799.372 1758.63 C 535.503 1672.91 353.359 1437.7 290.904 1172.6 C 219.582 1111.25 226.215 1019.12 244.358 935.716 C 267.428 829.658 316.463 738.272 381.393 652.385 C 357.145 668.747 339.085 697.826 307.718 700.131 C 286.715 701.674 268.452 682.009 268.872 661.536 C 269.514 630.208 287.72 597.598 308.462 575.123 C 329.154 552.702 355.484 538.668 385.544 534.067 C 396.782 532.194 408.552 532.174 419.624 529.458 C 459.076 519.782 484.308 494.144 511.61 466.08 C 605.718 369.419 726.38 303.527 856.699 270.088 C 916.125 254.839 974.776 249.033 1035.85 247.472 z" fill="rgb(1,1,1)" transform="translate(0,0)"></path>
<path d="M 1122.85 757.403 C 1126.07 757.02 1131.36 757.074 1134.76 756.998 C 1168.85 796.12 1181.75 835.084 1190.23 884.118 C 1193.64 903.861 1221.51 929.24 1243 927.206 C 1288.02 922.947 1281.88 872.187 1278.71 840.628 C 1294.34 850.755 1305.49 851.194 1323.17 850.062 C 1310.51 882.159 1310.9 917.619 1348.19 932.374 C 1338.77 936.923 1332.13 941.687 1324.77 949.096 C 1305.7 968.302 1297.91 1003.09 1320.9 1022.98 C 1328.15 1029.27 1337.64 1032.36 1347.21 1031.54 C 1359.87 1030.45 1368.43 1023.75 1376.25 1014.52 C 1397.02 1035.79 1409.88 1022.13 1434.58 1019.65 C 1460.08 1017.1 1497.17 1018.34 1514.71 1040.21 C 1565.27 1103.29 1583.68 1186.04 1576.29 1265.56 C 1567.2 1357.46 1514.56 1466.98 1443.03 1526.56 C 1434.28 1528.06 1426.87 1528.35 1418.06 1528.83 C 1368.48 1528.26 1321.93 1519.89 1278.1 1494.87 C 1266.13 1488.04 1253.63 1478.1 1242.54 1469.7 C 1225.74 1503.82 1208.16 1526.12 1175.62 1546.89 C 1056.03 1507.47 955.831 1398.48 910.39 1282.84 C 894.429 1241.42 883.964 1198.09 879.262 1153.95 C 861.879 995.606 943.383 776.733 1122.85 757.403 z" fill="rgb(254,254,254)" transform="translate(0,0)"></path>
<path d="M 528.945 465.795 C 557.999 436.12 597.543 404.037 632.253 381.244 C 977.63 154.451 1442.28 252.115 1672.74 593.535 C 1765.46 730.841 1811.65 894.288 1804.5 1059.81 C 1800.17 1142.27 1783.37 1223.6 1754.67 1301.02 C 1734.7 1355.52 1732.69 1351.83 1691.15 1389.35 C 1692.76 1385.7 1694.33 1382.02 1695.85 1378.32 C 1757.18 1229.54 1772.77 1083.28 1738.82 925.357 C 1705.22 769.093 1624.19 625.415 1503.31 519.978 C 1495.47 513.137 1467.8 488.959 1459.59 485.585 C 1459.44 486.884 1489.18 514.362 1492.15 517.219 C 1579.2 601.002 1651.36 703.551 1694.9 816.847 C 1750.47 963.04 1759.07 1122.92 1719.5 1274.23 C 1711.35 1304.9 1690.29 1376.73 1674.79 1402.46 C 1662.55 1422.77 1576.46 1479.54 1555.37 1491.78 C 1660.12 1377.69 1714.23 1230.25 1689.92 1074.04 C 1686.1 1049.46 1684.94 1024.85 1680.52 1000.88 C 1657.63 880.762 1603.27 768.866 1522.99 676.618 C 1453.57 598.529 1371.36 532.826 1279.89 482.321 C 1135.56 399.909 974.238 351.7 808.349 341.404 C 822.774 346.529 844.116 350.209 859.69 353.257 C 888.126 358.639 916.092 364.389 944.502 370.144 C 1228.53 427.678 1521.45 600.164 1632.79 879.452 C 1638.93 894.85 1645.33 912.175 1649.76 928.172 C 1652.69 937.558 1655.25 945.539 1657.33 955.193 C 1653.82 947.204 1650.49 939.138 1647.35 931 C 1643.7 922.582 1639.9 914.236 1635.93 905.966 C 1592.32 814.296 1523.79 719.967 1436.72 665.695 C 1413.76 651.387 1404.33 641.951 1383.83 624.345 C 1366.75 609.914 1349.24 595.996 1331.32 582.609 C 1264.89 533.602 1162.2 481.875 1084.8 455.184 C 942.528 406.126 786.471 379.842 638.846 421.617 C 599.595 432.724 565.43 448.402 528.945 465.795 z" fill="rgb(254,254,254)" transform="translate(0,0)"></path>
<path d="M 792.784 412.486 C 952.095 411.161 1130.42 472.064 1265.98 553.996 C 1302.56 576.1 1341.05 604.972 1374.82 631.464 C 1352.46 622.865 1336.12 616.312 1312.74 610.332 C 1272.38 600.375 1231.09 594.955 1190.5 586.03 C 1134.66 573.753 1081.18 551.331 1023.82 546.289 C 998.947 544.103 974.171 544.805 949.394 548.782 C 929.743 551.936 912.643 557.551 894.244 565.762 C 869.524 576.794 847.622 606.483 818.479 603.033 C 810.85 601.816 804.362 596.854 800.338 590.342 C 786.939 568.654 804.806 546.277 822.97 535.413 C 860.031 513.245 903.771 515.8 944.192 525.057 C 897.411 499.816 829.984 499.385 793.814 547.149 C 783.866 560.287 783.674 577.058 787.214 592.828 C 744.531 597.793 735.988 597.401 694.331 614.853 C 668.699 611.038 650.557 586.625 663.2 561.905 C 686.789 515.786 738.442 506.225 781.419 489.837 C 733.156 490.859 683.58 506.601 657.035 549.721 C 637.895 580.81 650.176 606.344 679.543 623.153 L 600.001 672.028 C 588.873 678.953 577.355 684.927 566.224 692.089 C 529.105 715.969 496.279 746.358 479.669 788.176 C 474.318 801.649 471.04 816.762 463.101 828.933 C 448.185 851.802 418.55 841.722 415.595 816.031 C 413.325 795.061 426.634 769.685 438.812 753.428 C 421.389 763.26 408.807 777.986 405.318 798.047 C 404.442 801.621 404.782 809.844 403.129 812.905 C 392.08 833.374 381.428 852.826 376.063 875.77 C 373.554 886.501 372.309 895.73 371.279 906.857 C 370.877 918.793 371.973 930.732 374.542 942.395 C 377.798 956.717 386.233 974.033 383.983 988.485 C 377.711 1028.78 335.875 1027.42 315.432 998.726 C 292.388 966.379 300.786 923.737 306.585 887.606 C 287.714 919.628 284.382 957.47 298.57 992.219 C 301.124 998.443 307.992 1006.38 309.77 1012.58 C 316.1 1034.66 323.603 1055.01 336.844 1074.09 C 345.854 1087.07 360.247 1097.56 368.425 1110.98 C 379.611 1129.33 373.544 1158.94 352.856 1168.12 C 315.404 1185.94 278.74 1151.47 263.125 1119.74 C 226.477 1045.28 249.709 952.571 272.082 877.126 C 295.964 807.51 329.434 742.864 372.845 683.423 C 377.888 676.044 383.272 668.428 388.719 661.422 C 403.069 642.686 407.539 636.526 431.539 637.382 C 464.824 638.569 482.294 659.568 504.07 681.723 C 514.175 692.004 521.045 695.514 534.4 699.901 C 498.428 668.885 486.003 622.486 532.292 591.375 C 559.132 573.335 603.835 572.958 634.754 580.045 C 585.355 551.999 510.431 567.049 492.609 626.514 C 490.238 634.426 490.941 643.486 491.207 651.689 C 449.085 616.488 404.8 619.066 361.306 652.921 C 347.399 663.746 338.726 676.758 321.913 684.61 C 303.23 693.336 291.052 689.059 282.109 670.192 C 277.189 659.06 283.485 638.793 288.075 627.976 C 305.044 587.982 338.774 554.094 382.67 546.195 C 406.07 541.938 423.639 542.612 446.084 533.253 C 431.201 554.033 424.269 566.233 417.302 590.714 C 432.889 567.082 454.403 540.809 473.773 520.041 C 489.796 502.861 518.041 486.099 539.071 474.808 C 620.814 430.918 700.706 414.174 792.784 412.486 z" fill="rgb(254,254,254)" transform="translate(0,0)"></path>
<path d="M 895.395 659.5 C 921.378 656.752 957.517 659.613 981.955 667.198 C 734.764 710.19 627.095 992.099 682.396 1214.23 C 711.595 1331.51 767.52 1443.98 851.992 1531.57 C 881.5 1559.71 903.208 1584.46 944.591 1590.42 C 1063.55 1607.55 1174.68 1600.05 1246.1 1486.43 C 1256.24 1492.75 1265.28 1499.33 1275.93 1505.29 C 1329.16 1535.11 1367.25 1537.17 1424.26 1539.93 C 1415.66 1546.15 1387.43 1565.4 1382.69 1572.48 C 1382.22 1579.72 1388.65 1580.96 1394.05 1584.01 C 1413.2 1594.86 1432.15 1595.55 1453.5 1597.83 C 1392.18 1605.2 1347.15 1584.63 1292.56 1559.85 C 1322.19 1592.73 1339.12 1601.34 1379.05 1619.03 C 1319.37 1620.06 1269.79 1600.17 1218.04 1573.3 C 1225.45 1604.75 1247.25 1623.57 1271.87 1642.76 C 1243.14 1638.27 1218.66 1631.87 1192.14 1619.75 C 1177.57 1613.1 1163.76 1605.64 1149.04 1599.18 C 1160.58 1616.4 1179.33 1631.63 1197.17 1641.94 C 1176.43 1638.19 1157.69 1635.53 1136.7 1634.25 C 1153.31 1645.72 1170.33 1652.84 1188.6 1661.1 C 1157.63 1661.31 1122.79 1651.25 1092.48 1643.76 C 1123.09 1675.92 1159.17 1690.08 1200.45 1703.26 C 1125.27 1700.51 1060.99 1681.22 991.843 1652.24 C 974.909 1645.15 958.898 1636.7 942.107 1629.48 C 958.506 1656.02 1002.45 1691.07 1027.36 1710.33 C 975.977 1693.53 936.321 1673.71 890.944 1643.55 C 857.534 1621.35 843.379 1608.09 806.231 1590.96 C 842.8 1633.25 881.841 1661.64 926.782 1694.24 C 891.697 1681.2 849.48 1654.12 819.656 1631.78 C 773.361 1598.32 733.231 1545.2 689.807 1504.63 C 695.979 1525.04 716.767 1560.16 728.659 1578.99 C 733.986 1587.43 744.694 1600.51 751.161 1610.25 C 708.655 1583.32 678.401 1550.35 647.956 1510.51 C 633.485 1491.58 620.712 1470.02 604.071 1453.03 C 606.718 1468.81 610.318 1478.87 615.681 1493.78 C 609.756 1486.39 603.501 1479.4 597.175 1472.36 C 569.701 1441.79 546.833 1406.8 523.083 1373.2 C 530.988 1425.69 560.765 1468.82 587.241 1513.15 C 531.566 1483.38 509.524 1426.2 487.037 1371.59 C 479.672 1353.71 469.997 1333.37 457.626 1318.63 C 465.892 1354.63 469.254 1365.05 483.642 1398.62 C 439.645 1340.46 415.158 1281.63 391.56 1212.92 C 372.152 1221.29 341.851 1222.48 335.201 1195.07 C 334.292 1191.33 334.371 1186.99 336.739 1183.84 C 344.331 1182.42 357.671 1201.51 370.598 1199.41 C 373.614 1198.92 379.846 1199.74 383.158 1196.39 C 382.533 1190.88 379.448 1170.91 383.069 1167.02 C 392.347 1172.65 441.552 1297.56 483.431 1321.18 C 487.723 1323.6 493.068 1325.34 497.932 1323.64 C 502.364 1322.09 503.862 1318.66 505.755 1314.71 C 522.063 1347.79 554.127 1394.23 583.577 1416.48 C 603.579 1431.59 619.964 1429.49 633.531 1408.21 C 642.09 1419.47 649.899 1431.24 658.783 1442.28 C 682.596 1471.87 711.752 1500.62 741.761 1523.84 C 765.663 1542.34 834.286 1590.81 863.755 1585.91 C 867.168 1585.35 870.84 1583.49 872.517 1580.31 C 873.885 1577.71 874.111 1575.67 873.367 1572.84 C 870.414 1561.61 804.291 1507.1 791.56 1498.98 C 804.343 1529.04 817.401 1543.63 839.698 1567.37 C 778.784 1547.73 707.088 1485.18 667.198 1436.22 C 607.339 1362.76 567.89 1250.69 555.469 1157.62 C 549.398 1110.34 548.545 1062.53 552.926 1015.06 C 560.223 940.263 587.081 854.82 628.222 791.434 C 637.157 777.668 643.876 766.904 656.592 756.45 C 653.761 772.167 653.283 789.827 665.99 801.729 C 679.821 814.685 700.393 804.181 708.494 790.014 C 715.048 778.553 716.652 765.226 721.399 752.965 C 725.034 743.757 730.155 735.208 736.559 727.659 C 772.433 684.665 841.306 664.407 895.395 659.5 z" fill="rgb(254,254,254)" transform="translate(0,0)"></path>
<path d="M 798.399 604.467 C 837.015 630.076 856.489 600.081 888.675 581.799 C 982.074 528.746 1083.54 570.334 1177.94 595.097 C 1218.11 605.637 1260.26 609.831 1300.38 619.251 C 1343.68 629.612 1385.05 646.804 1422.93 670.181 C 1550.28 748.007 1634.62 900.123 1672.25 1042.47 C 1679.09 1068.34 1684.47 1107.71 1685.37 1134.33 L 1683.26 1134.77 C 1669.31 1034.75 1621.57 958.137 1550.32 888.146 C 1507.49 846.077 1458.93 793.724 1391.76 803.646 C 1364.57 807.664 1350.09 815.719 1330.72 834.661 C 1314.78 838.143 1302.85 841.336 1287.82 832.535 C 1271.31 822.874 1271.06 805.356 1264.77 789.448 C 1233.11 709.328 1150.46 638.523 1065.56 622.614 C 1146.02 660.056 1220.87 707.877 1253.06 795.308 C 1262.81 821.788 1277.25 874.084 1264.61 900.493 C 1261.5 906.976 1256.4 912.163 1249.54 914.546 C 1242.1 917.128 1233.94 916.111 1226.98 912.62 C 1214.71 906.471 1204.61 892.434 1200.69 879.531 C 1195.63 862.865 1194.97 845.381 1189.27 828.558 C 1166.88 762.528 1114.53 709.217 1054.45 675.566 C 981.7 634.815 881.077 612.268 799.828 635.338 C 751.327 649.11 703.338 675.319 671.141 714.986 C 661.479 726.889 655.239 742.666 642.685 751.931 C 633.311 758.848 617.499 763.908 606.603 757.593 C 600.745 754.199 597.032 747.867 595.497 741.421 C 591.528 724.754 603.184 694.824 612.322 680.957 C 623.131 664.555 692.505 628.53 713.408 619.783 C 725.048 614.782 737.171 610.992 749.587 608.474 C 762.659 605.938 785.132 603.606 798.399 604.467 z" fill="rgb(254,254,254)" transform="translate(0,0)"></path>
<path d="M 1004.03 676.412 C 1032.11 673.842 1048.93 687.796 1073.4 701.774 C 1063.85 702.381 1054.55 703.148 1045.08 704.634 C 974.252 715.751 909.652 768.118 868.652 825.273 C 850.728 850.155 835.754 877.035 824.031 905.371 C 786.106 998.611 775.54 1133.54 791.935 1232.67 C 808.706 1334.08 852.775 1417.76 921.065 1493.91 C 937.142 1511.84 953.859 1529.75 972 1545.61 C 988.952 1560.44 1007.35 1573.93 1025.64 1587.03 C 1017.5 1586.95 1011.2 1586.73 1003.11 1586.03 C 985.066 1573.09 967.596 1559.37 950.747 1544.91 C 838.363 1447.52 768.78 1308.61 750.324 1161.71 C 747.519 1138.16 745.744 1114.5 745.002 1090.8 C 744.493 1073.01 744.757 1053.35 743.521 1035.81 C 730.346 1050.47 737.372 1158.84 740.41 1180.21 C 757.609 1301.18 815.926 1415.39 896.511 1506.45 C 922.815 1536.17 952.354 1561.21 983.841 1585.26 C 972.23 1584.22 929.947 1579 921.869 1574.38 C 822.778 1517.7 738.197 1361.06 706.884 1264.3 C 693.646 1223.38 685.126 1181.09 681.491 1138.24 C 678.247 1095.52 679.3 1043.71 686.8 1001.43 C 714.665 844.385 834.592 688.647 1004.03 676.412 z" fill="rgb(254,254,254)" transform="translate(0,0)"></path>
<path d="M 579.768 736.111 C 584.692 742.984 586.01 757.9 596.143 764.401 C 605.925 770.676 618.356 771.746 629.292 770.263 C 621.68 782.275 613.733 794.028 606.735 806.411 C 505.523 985.495 523.698 1226.62 628.07 1399.78 C 620.032 1404.49 618.978 1406.48 612.587 1412.74 C 606.178 1419.01 588.926 1407.38 583.702 1402.85 C 560.021 1382.33 541.145 1353.15 524.721 1326.97 C 512.264 1309.07 505.811 1291.96 490.49 1274.62 L 491.505 1279.33 C 492.862 1285.78 499.648 1312 489.738 1312.66 C 482.587 1309.18 477.596 1301.92 472.369 1296.07 C 444.855 1265.26 429.88 1230.22 411.273 1194.28 C 453.168 1175.27 419.372 1131.11 408.371 1104.65 C 404.91 1096.33 409.707 1073.33 412.051 1064.5 C 426.555 1061.04 434.87 1056.47 439.774 1041.3 C 450.569 1007.91 420.141 979.421 419.321 949.36 C 418.544 920.877 431.736 880.561 440.724 853.434 C 444.734 852.813 449.308 851.708 453.329 850.848 C 458.278 865.055 467.232 880.809 484.994 878.72 C 520.665 874.525 522.85 818.166 538.207 792.78 C 552.19 769.665 562.223 755.261 579.768 736.111 z" fill="rgb(254,254,254)" transform="translate(0,0)"></path>
<path d="M 1398.58 814.34 C 1486.89 805.453 1566.13 906.852 1608.88 971.722 C 1700.28 1110.42 1698.26 1269.04 1606.24 1406.44 C 1562.24 1472.14 1483.86 1552.46 1403.76 1569.53 C 1430.6 1548.22 1462.6 1529.8 1489.61 1507.91 C 1611.81 1408.9 1682.77 1216.94 1586.98 1076.98 C 1576.31 1061.39 1557.42 1046.64 1542.06 1035.76 C 1509 1014.1 1470.64 1002.47 1430.92 1007.2 C 1421.58 1008.07 1411.91 1012.76 1402.71 1013.68 C 1381.48 1015.82 1381.77 988.466 1391.22 976.387 C 1402.5 961.951 1415.75 959.477 1432.26 956.876 C 1409.53 947.788 1391.81 954.344 1379.63 975.082 C 1371.56 988.831 1368.16 1013.3 1350.8 1018.14 C 1344.36 1019.94 1337.46 1018.9 1331.84 1015.27 C 1325.26 1011.1 1320.41 1003.34 1319.3 995.766 C 1312.96 952.212 1368.19 935.051 1399.42 928.01 C 1439.88 918.887 1470.21 931.774 1502.57 953.13 C 1492.16 975.809 1511.83 989.651 1528.44 1002.17 C 1546.96 1016.13 1560.98 1027.67 1575.58 1045.84 C 1582.64 1054.48 1588.96 1063.7 1594.47 1073.39 C 1602.39 1087.64 1605.32 1096.45 1615.82 1109.26 C 1612.78 1061.45 1581.77 1030.9 1547.55 1000.88 C 1538.28 992.749 1509.35 977.307 1512.79 963.615 C 1525.46 949.463 1550.92 963.468 1563.99 970.122 C 1548.04 951.086 1537.47 946.538 1512.92 947.061 C 1469.33 913.809 1436.98 906.126 1383.57 919.548 C 1393.01 907.531 1389.32 906.112 1393.44 892.363 C 1403.74 858.027 1443.5 864.314 1468.65 872.444 C 1464.13 868.604 1460.49 865.524 1455.42 862.377 C 1429.11 845.961 1389.65 857.315 1382.89 889.341 C 1379.99 904.677 1376.11 920.295 1356.89 919.302 C 1320.58 917.428 1318.69 867.546 1337.48 844.773 C 1353.95 824.812 1374.58 817.719 1398.58 814.34 z" fill="rgb(254,254,254)" transform="translate(0,0)"></path>
<path d="M 1546.72 1053.67 C 1549.88 1055.3 1553.39 1058.8 1556.23 1061.13 C 1595.85 1093.77 1615.34 1156.59 1618.76 1206.65 C 1623.29 1272.9 1602.1 1343.36 1567.65 1399.74 C 1554.04 1422.02 1537.22 1442 1519.84 1461.59 C 1515.67 1466.2 1510.1 1472.79 1505.25 1476.3 C 1506.72 1471.92 1524.01 1447.79 1527.93 1441.16 C 1582.83 1348.28 1604.12 1240.84 1576.18 1135.53 C 1571.96 1120.16 1566.74 1105.08 1560.54 1090.4 C 1555.9 1079.16 1549.46 1065.32 1546.72 1053.67 z" fill="rgb(254,254,254)" transform="translate(0,0)"></path>
<path d="M 1717.68 1381.87 C 1717.86 1388.12 1708.83 1399.99 1706.1 1405.89 C 1689.68 1441.28 1656.76 1462.35 1622.75 1481.67 C 1634.06 1487.53 1640.34 1487.89 1652.69 1489.07 C 1636.74 1497.44 1619.14 1504.67 1602.06 1510.43 C 1585.8 1515.92 1567.09 1519.09 1552.13 1527.27 C 1568.3 1532.75 1584.36 1532.75 1600.87 1536.89 C 1590.59 1538.66 1579.26 1542.6 1568.6 1544.61 C 1546.33 1548.8 1525.87 1549.49 1503.4 1548.95 C 1513.72 1557.81 1522.3 1562.32 1534.07 1568.97 L 1526.18 1572.2 C 1498.32 1580.3 1457.71 1578.87 1428.56 1576.08 C 1451.62 1564.25 1471.44 1553.97 1493.01 1539.07 C 1502.79 1532.31 1511.95 1524.52 1521.66 1518.22 C 1526.83 1514.87 1539.93 1511 1546.41 1508.65 C 1555.34 1505.49 1564 1501.62 1572.3 1497.07 C 1620.58 1470.37 1677.71 1420.23 1717.68 1381.87 z" fill="rgb(254,254,254)" transform="translate(0,0)"></path>
<path d="M 902.596 1296.63 C 904.362 1298.29 920.688 1329.83 923.295 1334.74 C 972.36 1427.14 1048.83 1505.88 1146.47 1547.17 C 1103.29 1548.22 1028.09 1515.61 1000.01 1484.45 C 954.84 1434.34 922.328 1360.62 902.596 1296.63 z" fill="rgb(254,254,254)" transform="translate(0,0)"></path>
<path d="M 371.114 1028.26 C 380.925 1044.46 384.687 1053.75 402.967 1062.54 C 398.424 1081.19 401.406 1086.34 399.665 1100.37 L 398.521 1100.39 C 388.595 1087.36 364.09 1046.95 363.326 1032.24 C 365.526 1029.55 367.235 1029.69 371.114 1028.26 z" fill="rgb(254,254,254)" transform="translate(0,0)"></path>
<path d="M 1683.26 1134.77 L 1685.37 1134.33 C 1686.55 1145.71 1687.5 1153.31 1686.26 1164.64 C 1685.17 1154.86 1683.84 1144.54 1683.26 1134.77 z" fill="rgb(187,187,187)" transform="translate(0,0)"></path>
<metadata><recraft-signature>{"signed_by": "recraft", "signature_b64": "L2fiXx7Cdf7ZsMfsLjwk+fKd+fsLG6ob6gFsYQJaMcP4zu9Q3akhmPYcvOCtYKP2OclbmUgCkeWeT+hPOgknBg==", "signing_algo": "Ed25519", "generation_timestamp": 1772985931, "identifier": "90b82df1-978b-414d-9ca0-64dfe3581bb2"}</recraft-signature></metadata></svg>