<svg xmlns="http://www.w3.org/2000/svg" width="4500" height="5400" viewBox="0 0 4500 5400">
  <!-- Lanikai Tee — Back graphic -->
  <!-- Digital camo wave pattern in tri-color + DAWN PATROL text -->
  <!-- For light garment (pikake cream) — teal/coral/palm colors -->

  <!-- Wave layer 1 — Trade Wind Teal -->
  <path d="M300,2800 C600,2600 900,2700 1200,2500 C1500,2300 1800,2400 2100,2200 C2400,2000 2700,2100 3000,1900 C3300,1700 3600,1800 3900,1600 L4200,1600 L4200,2200 C3900,2000 3600,2100 3300,2300 C3000,2500 2700,2400 2400,2600 C2100,2800 1800,2700 1500,2900 C1200,3100 900,3000 600,3200 L300,3200 Z" fill="#2B6B7F" opacity="0.85"/>

  <!-- Wave layer 2 — Coral Reef -->
  <path d="M300,3100 C600,2900 900,3000 1200,2800 C1500,2600 1800,2700 2100,2500 C2400,2300 2700,2400 3000,2200 C3300,2000 3600,2100 3900,1900 L4200,1900 L4200,2500 C3900,2300 3600,2400 3300,2600 C3000,2800 2700,2700 2400,2900 C2100,3100 1800,3000 1500,3200 C1200,3400 900,3300 600,3500 L300,3500 Z" fill="#C4705A" opacity="0.8"/>

  <!-- Wave layer 3 — Palm Canopy -->
  <path d="M300,3400 C600,3200 900,3300 1200,3100 C1500,2900 1800,3000 2100,2800 C2400,2600 2700,2700 3000,2500 C3300,2300 3600,2400 3900,2200 L4200,2200 L4200,2800 C3900,2600 3600,2700 3300,2900 C3000,3100 2700,3000 2400,3200 C2100,3400 1800,3300 1500,3500 C1200,3700 900,3600 600,3800 L300,3800 Z" fill="#4A6741" opacity="0.8"/>

  <!-- DAWN PATROL text overlay -->
  <text x="2250" y="2850" font-family="'DM Sans', 'Helvetica Neue', Arial, sans-serif" font-weight="900" font-size="520" fill="#FFFFFF" text-anchor="middle" letter-spacing="20">DAWN</text>
  <text x="2250" y="3350" font-family="'DM Sans', 'Helvetica Neue', Arial, sans-serif" font-weight="900" font-size="520" fill="#FFFFFF" text-anchor="middle" letter-spacing="20">PATROL</text>
</svg>
